<?xml version="1.0" encoding="utf-8" standalone="no"?>
<!DOCTYPE svg PUBLIC "-//W3C//DTD SVG 1.1//EN"
  "http://www.w3.org/Graphics/SVG/1.1/DTD/svg11.dtd">
<svg xmlns:xlink="http://www.w3.org/1999/xlink" width="1029.434755pt" height="251.674165pt" viewBox="0 0 1029.434755 251.674165" xmlns="http://www.w3.org/2000/svg" version="1.1">
 <metadata>
  <rdf:RDF xmlns:dc="http://purl.org/dc/elements/1.1/" xmlns:cc="http://creativecommons.org/ns#" xmlns:rdf="http://www.w3.org/1999/02/22-rdf-syntax-ns#">
   <cc:Work>
    <dc:type rdf:resource="http://purl.org/dc/dcmitype/StillImage"/>
    <dc:date>2026-09-20T19:43:07.864630</dc:date>
    <dc:format>image/svg+xml</dc:format>
    <dc:creator>
     <cc:Agent>
      <dc:title>Matplotlib v3.9.2, https://matplotlib.org/</dc:title>
     </cc:Agent>
    </dc:creator>
   </cc:Work>
  </rdf:RDF>
 </metadata>
 <defs>
  <style type="text/css">*{stroke-linejoin: round; stroke-linecap: butt}</style>
 </defs>
 <g id="figure_1">
  <g id="patch_1">
   <path d="M 0 251.674165 
L 1029.434755 251.674165 
L 1029.434755 0 
L 0 0 
z
" style="fill: #ffffff"/>
  </g>
  <g id="axes_1">
   <g id="patch_2">
    <path d="M 37.744755 220.26091 
L 253.571005 220.26091 
L 253.571005 27.81491 
L 37.744755 27.81491 
z
" style="fill: #ffffff"/>
   </g>
   <g id="patch_3">
    <path d="M 47.555039 220.26091 
L 50.670714 220.26091 
L 50.670714 213.829966 
L 47.555039 213.829966 
z
" clip-path="url(#p3426e4d735)" style="fill: #e9d8d2; opacity: 0.95; stroke: #a7afb8; stroke-width: 0.5; stroke-linejoin: miter"/>
   </g>
   <g id="patch_4">
    <path d="M 50.670714 220.26091 
L 53.786389 220.26091 
L 53.786389 217.045438 
L 50.670714 217.045438 
z
" clip-path="url(#p3426e4d735)" style="fill: #e9d8d2; opacity: 0.95; stroke: #a7afb8; stroke-width: 0.5; stroke-linejoin: miter"/>
   </g>
   <g id="patch_5">
    <path d="M 53.786389 220.26091 
L 56.902064 220.26091 
L 56.902064 210.614494 
L 53.786389 210.614494 
z
" clip-path="url(#p3426e4d735)" style="fill: #e9d8d2; opacity: 0.95; stroke: #a7afb8; stroke-width: 0.5; stroke-linejoin: miter"/>
   </g>
   <g id="patch_6">
    <path d="M 56.902064 220.26091 
L 60.017739 220.26091 
L 60.017739 209.006758 
L 56.902064 209.006758 
z
" clip-path="url(#p3426e4d735)" style="fill: #e9d8d2; opacity: 0.95; stroke: #a7afb8; stroke-width: 0.5; stroke-linejoin: miter"/>
   </g>
   <g id="patch_7">
    <path d="M 60.017739 220.26091 
L 63.133414 220.26091 
L 63.133414 199.360342 
L 60.017739 199.360342 
z
" clip-path="url(#p3426e4d735)" style="fill: #e9d8d2; opacity: 0.95; stroke: #a7afb8; stroke-width: 0.5; stroke-linejoin: miter"/>
   </g>
   <g id="patch_8">
    <path d="M 63.133414 220.26091 
L 66.249089 220.26091 
L 66.249089 189.713926 
L 63.133414 189.713926 
z
" clip-path="url(#p3426e4d735)" style="fill: #e9d8d2; opacity: 0.95; stroke: #a7afb8; stroke-width: 0.5; stroke-linejoin: miter"/>
   </g>
   <g id="patch_9">
    <path d="M 66.249089 220.26091 
L 69.364764 220.26091 
L 69.364764 160.774678 
L 66.249089 160.774678 
z
" clip-path="url(#p3426e4d735)" style="fill: #e9d8d2; opacity: 0.95; stroke: #a7afb8; stroke-width: 0.5; stroke-linejoin: miter"/>
   </g>
   <g id="patch_10">
    <path d="M 69.364764 220.26091 
L 72.480439 220.26091 
L 72.480439 136.658638 
L 69.364764 136.658638 
z
" clip-path="url(#p3426e4d735)" style="fill: #e9d8d2; opacity: 0.95; stroke: #a7afb8; stroke-width: 0.5; stroke-linejoin: miter"/>
   </g>
   <g id="patch_11">
    <path d="M 72.480439 220.26091 
L 75.596114 220.26091 
L 75.596114 120.581278 
L 72.480439 120.581278 
z
" clip-path="url(#p3426e4d735)" style="fill: #e9d8d2; opacity: 0.95; stroke: #a7afb8; stroke-width: 0.5; stroke-linejoin: miter"/>
   </g>
   <g id="patch_12">
    <path d="M 75.596114 220.26091 
L 78.711789 220.26091 
L 78.711789 104.503918 
L 75.596114 104.503918 
z
" clip-path="url(#p3426e4d735)" style="fill: #e9d8d2; opacity: 0.95; stroke: #a7afb8; stroke-width: 0.5; stroke-linejoin: miter"/>
   </g>
   <g id="patch_13">
    <path d="M 78.711789 220.26091 
L 81.827463 220.26091 
L 81.827463 86.818821 
L 78.711789 86.818821 
z
" clip-path="url(#p3426e4d735)" style="fill: #e9d8d2; opacity: 0.95; stroke: #a7afb8; stroke-width: 0.5; stroke-linejoin: miter"/>
   </g>
   <g id="patch_14">
    <path d="M 81.827463 220.26091 
L 84.943138 220.26091 
L 84.943138 36.979005 
L 81.827463 36.979005 
z
" clip-path="url(#p3426e4d735)" style="fill: #e9d8d2; opacity: 0.95; stroke: #a7afb8; stroke-width: 0.5; stroke-linejoin: miter"/>
   </g>
   <g id="patch_15">
    <path d="M 84.943138 220.26091 
L 88.058813 220.26091 
L 88.058813 64.310517 
L 84.943138 64.310517 
z
" clip-path="url(#p3426e4d735)" style="fill: #e9d8d2; opacity: 0.95; stroke: #a7afb8; stroke-width: 0.5; stroke-linejoin: miter"/>
   </g>
   <g id="patch_16">
    <path d="M 88.058813 220.26091 
L 91.174488 220.26091 
L 91.174488 62.702781 
L 88.058813 62.702781 
z
" clip-path="url(#p3426e4d735)" style="fill: #e9d8d2; opacity: 0.95; stroke: #a7afb8; stroke-width: 0.5; stroke-linejoin: miter"/>
   </g>
   <g id="patch_17">
    <path d="M 91.174488 220.26091 
L 94.290163 220.26091 
L 94.290163 36.979005 
L 91.174488 36.979005 
z
" clip-path="url(#p3426e4d735)" style="fill: #e9d8d2; opacity: 0.95; stroke: #a7afb8; stroke-width: 0.5; stroke-linejoin: miter"/>
   </g>
   <g id="patch_18">
    <path d="M 94.290163 220.26091 
L 97.405838 220.26091 
L 97.405838 98.072973 
L 94.290163 98.072973 
z
" clip-path="url(#p3426e4d735)" style="fill: #e9d8d2; opacity: 0.95; stroke: #a7afb8; stroke-width: 0.5; stroke-linejoin: miter"/>
   </g>
   <g id="patch_19">
    <path d="M 97.405838 220.26091 
L 100.521513 220.26091 
L 100.521513 122.189014 
L 97.405838 122.189014 
z
" clip-path="url(#p3426e4d735)" style="fill: #e9d8d2; opacity: 0.95; stroke: #a7afb8; stroke-width: 0.5; stroke-linejoin: miter"/>
   </g>
   <g id="patch_20">
    <path d="M 100.521513 220.26091 
L 103.637188 220.26091 
L 103.637188 162.382414 
L 100.521513 162.382414 
z
" clip-path="url(#p3426e4d735)" style="fill: #e9d8d2; opacity: 0.95; stroke: #a7afb8; stroke-width: 0.5; stroke-linejoin: miter"/>
   </g>
   <g id="patch_21">
    <path d="M 103.637188 220.26091 
L 106.752863 220.26091 
L 106.752863 183.282982 
L 103.637188 183.282982 
z
" clip-path="url(#p3426e4d735)" style="fill: #e9d8d2; opacity: 0.95; stroke: #a7afb8; stroke-width: 0.5; stroke-linejoin: miter"/>
   </g>
   <g id="patch_22">
    <path d="M 106.752863 220.26091 
L 109.868538 220.26091 
L 109.868538 199.360342 
L 106.752863 199.360342 
z
" clip-path="url(#p3426e4d735)" style="fill: #e9d8d2; opacity: 0.95; stroke: #a7afb8; stroke-width: 0.5; stroke-linejoin: miter"/>
   </g>
   <g id="patch_23">
    <path d="M 109.868538 220.26091 
L 112.984213 220.26091 
L 112.984213 209.006758 
L 109.868538 209.006758 
z
" clip-path="url(#p3426e4d735)" style="fill: #e9d8d2; opacity: 0.95; stroke: #a7afb8; stroke-width: 0.5; stroke-linejoin: miter"/>
   </g>
   <g id="patch_24">
    <path d="M 112.984213 220.26091 
L 116.099888 220.26091 
L 116.099888 218.653174 
L 112.984213 218.653174 
z
" clip-path="url(#p3426e4d735)" style="fill: #e9d8d2; opacity: 0.95; stroke: #a7afb8; stroke-width: 0.5; stroke-linejoin: miter"/>
   </g>
   <g id="patch_25">
    <path d="M 116.099888 220.26091 
L 119.215563 220.26091 
L 119.215563 217.045438 
L 116.099888 217.045438 
z
" clip-path="url(#p3426e4d735)" style="fill: #e9d8d2; opacity: 0.95; stroke: #a7afb8; stroke-width: 0.5; stroke-linejoin: miter"/>
   </g>
   <g id="matplotlib.axis_1">
    <g id="xtick_1">
     <g id="line2d_1">
      <defs>
       <path id="m3ca9263333" d="M 0 0 
L 0 3 
" style="stroke: #3a4b6e; stroke-width: 0.75"/>
      </defs>
      <g>
       <use xlink:href="#m3ca9263333" x="61.829608" y="220.26091" style="fill: #3a4b6e; stroke: #3a4b6e; stroke-width: 0.75"/>
      </g>
     </g>
     <g id="text_1">
      <!-- −0.4 -->
      <g transform="translate(53.538545 232.773472) scale(0.084 -0.084)">
       <defs>
        <path id="ArialMT-2212" d="M 3381 1997 
L 356 1997 
L 356 2522 
L 3381 2522 
L 3381 1997 
z
" transform="scale(0.015625)"/>
        <path id="ArialMT-30" d="M 266 2259 
Q 266 3072 433 3567 
Q 600 4063 929 4331 
Q 1259 4600 1759 4600 
Q 2128 4600 2406 4451 
Q 2684 4303 2865 4023 
Q 3047 3744 3150 3342 
Q 3253 2941 3253 2259 
Q 3253 1453 3087 958 
Q 2922 463 2592 192 
Q 2263 -78 1759 -78 
Q 1097 -78 719 397 
Q 266 969 266 2259 
z
M 844 2259 
Q 844 1131 1108 757 
Q 1372 384 1759 384 
Q 2147 384 2411 759 
Q 2675 1134 2675 2259 
Q 2675 3391 2411 3762 
Q 2147 4134 1753 4134 
Q 1366 4134 1134 3806 
Q 844 3388 844 2259 
z
" transform="scale(0.015625)"/>
        <path id="ArialMT-2e" d="M 581 0 
L 581 641 
L 1222 641 
L 1222 0 
L 581 0 
z
" transform="scale(0.015625)"/>
        <path id="ArialMT-34" d="M 2069 0 
L 2069 1097 
L 81 1097 
L 81 1613 
L 2172 4581 
L 2631 4581 
L 2631 1613 
L 3250 1613 
L 3250 1097 
L 2631 1097 
L 2631 0 
L 2069 0 
z
M 2069 1613 
L 2069 3678 
L 634 1613 
L 2069 1613 
z
" transform="scale(0.015625)"/>
       </defs>
       <use xlink:href="#ArialMT-2212"/>
       <use xlink:href="#ArialMT-30" x="58.398438"/>
       <use xlink:href="#ArialMT-2e" x="114.013672"/>
       <use xlink:href="#ArialMT-34" x="141.796875"/>
      </g>
     </g>
    </g>
    <g id="xtick_2">
     <g id="line2d_2">
      <g>
       <use xlink:href="#m3ca9263333" x="94.050535" y="220.26091" style="fill: #3a4b6e; stroke: #3a4b6e; stroke-width: 0.75"/>
      </g>
     </g>
     <g id="text_2">
      <!-- −0.2 -->
      <g transform="translate(85.759472 232.773472) scale(0.084 -0.084)">
       <defs>
        <path id="ArialMT-32" d="M 3222 541 
L 3222 0 
L 194 0 
Q 188 203 259 391 
Q 375 700 629 1000 
Q 884 1300 1366 1694 
Q 2113 2306 2375 2664 
Q 2638 3022 2638 3341 
Q 2638 3675 2398 3904 
Q 2159 4134 1775 4134 
Q 1369 4134 1125 3890 
Q 881 3647 878 3216 
L 300 3275 
Q 359 3922 746 4261 
Q 1134 4600 1788 4600 
Q 2447 4600 2831 4234 
Q 3216 3869 3216 3328 
Q 3216 3053 3103 2787 
Q 2991 2522 2730 2228 
Q 2469 1934 1863 1422 
Q 1356 997 1212 845 
Q 1069 694 975 541 
L 3222 541 
z
" transform="scale(0.015625)"/>
       </defs>
       <use xlink:href="#ArialMT-2212"/>
       <use xlink:href="#ArialMT-30" x="58.398438"/>
       <use xlink:href="#ArialMT-2e" x="114.013672"/>
       <use xlink:href="#ArialMT-32" x="141.796875"/>
      </g>
     </g>
    </g>
    <g id="xtick_3">
     <g id="line2d_3">
      <g>
       <use xlink:href="#m3ca9263333" x="126.271461" y="220.26091" style="fill: #3a4b6e; stroke: #3a4b6e; stroke-width: 0.75"/>
      </g>
     </g>
     <g id="text_3">
      <!-- 0.0 -->
      <g transform="translate(120.433461 232.773472) scale(0.084 -0.084)">
       <use xlink:href="#ArialMT-30"/>
       <use xlink:href="#ArialMT-2e" x="55.615234"/>
       <use xlink:href="#ArialMT-30" x="83.398438"/>
      </g>
     </g>
    </g>
    <g id="xtick_4">
     <g id="line2d_4">
      <g>
       <use xlink:href="#m3ca9263333" x="158.492388" y="220.26091" style="fill: #3a4b6e; stroke: #3a4b6e; stroke-width: 0.75"/>
      </g>
     </g>
     <g id="text_4">
      <!-- 0.2 -->
      <g transform="translate(152.654388 232.773472) scale(0.084 -0.084)">
       <use xlink:href="#ArialMT-30"/>
       <use xlink:href="#ArialMT-2e" x="55.615234"/>
       <use xlink:href="#ArialMT-32" x="83.398438"/>
      </g>
     </g>
    </g>
    <g id="xtick_5">
     <g id="line2d_5">
      <g>
       <use xlink:href="#m3ca9263333" x="190.713315" y="220.26091" style="fill: #3a4b6e; stroke: #3a4b6e; stroke-width: 0.75"/>
      </g>
     </g>
     <g id="text_5">
      <!-- 0.4 -->
      <g transform="translate(184.875315 232.773472) scale(0.084 -0.084)">
       <use xlink:href="#ArialMT-30"/>
       <use xlink:href="#ArialMT-2e" x="55.615234"/>
       <use xlink:href="#ArialMT-34" x="83.398438"/>
      </g>
     </g>
    </g>
    <g id="xtick_6">
     <g id="line2d_6">
      <g>
       <use xlink:href="#m3ca9263333" x="222.934242" y="220.26091" style="fill: #3a4b6e; stroke: #3a4b6e; stroke-width: 0.75"/>
      </g>
     </g>
     <g id="text_6">
      <!-- 0.6 -->
      <g transform="translate(217.096242 232.773472) scale(0.084 -0.084)">
       <defs>
        <path id="ArialMT-36" d="M 3184 3459 
L 2625 3416 
Q 2550 3747 2413 3897 
Q 2184 4138 1850 4138 
Q 1581 4138 1378 3988 
Q 1113 3794 959 3422 
Q 806 3050 800 2363 
Q 1003 2672 1297 2822 
Q 1591 2972 1913 2972 
Q 2475 2972 2870 2558 
Q 3266 2144 3266 1488 
Q 3266 1056 3080 686 
Q 2894 316 2569 119 
Q 2244 -78 1831 -78 
Q 1128 -78 684 439 
Q 241 956 241 2144 
Q 241 3472 731 4075 
Q 1159 4600 1884 4600 
Q 2425 4600 2770 4297 
Q 3116 3994 3184 3459 
z
M 888 1484 
Q 888 1194 1011 928 
Q 1134 663 1356 523 
Q 1578 384 1822 384 
Q 2178 384 2434 671 
Q 2691 959 2691 1453 
Q 2691 1928 2437 2201 
Q 2184 2475 1800 2475 
Q 1419 2475 1153 2201 
Q 888 1928 888 1484 
z
" transform="scale(0.015625)"/>
       </defs>
       <use xlink:href="#ArialMT-30"/>
       <use xlink:href="#ArialMT-2e" x="55.615234"/>
       <use xlink:href="#ArialMT-36" x="83.398438"/>
      </g>
     </g>
    </g>
    <g id="text_7">
     <!-- R2 -->
     <g transform="translate(139.430094 245.417545) scale(0.09744 -0.09744)">
      <defs>
       <path id="ArialMT-52" d="M 503 0 
L 503 4581 
L 2534 4581 
Q 3147 4581 3465 4457 
Q 3784 4334 3975 4021 
Q 4166 3709 4166 3331 
Q 4166 2844 3850 2509 
Q 3534 2175 2875 2084 
Q 3116 1969 3241 1856 
Q 3506 1613 3744 1247 
L 4541 0 
L 3778 0 
L 3172 953 
Q 2906 1366 2734 1584 
Q 2563 1803 2427 1890 
Q 2291 1978 2150 2013 
Q 2047 2034 1813 2034 
L 1109 2034 
L 1109 0 
L 503 0 
z
M 1109 2559 
L 2413 2559 
Q 2828 2559 3062 2645 
Q 3297 2731 3419 2920 
Q 3541 3109 3541 3331 
Q 3541 3656 3305 3865 
Q 3069 4075 2559 4075 
L 1109 4075 
L 1109 2559 
z
" transform="scale(0.015625)"/>
      </defs>
      <use xlink:href="#ArialMT-52"/>
      <use xlink:href="#ArialMT-32" x="72.216797"/>
     </g>
    </g>
   </g>
   <g id="matplotlib.axis_2">
    <g id="ytick_1">
     <g id="line2d_7">
      <defs>
       <path id="md4ccfabfc4" d="M 0 0 
L -3 0 
" style="stroke: #3a4b6e; stroke-width: 0.75"/>
      </defs>
      <g>
       <use xlink:href="#md4ccfabfc4" x="37.744755" y="220.26091" style="fill: #3a4b6e; stroke: #3a4b6e; stroke-width: 0.75"/>
      </g>
     </g>
     <g id="text_8">
      <!-- 0 -->
      <g transform="translate(26.573567 223.267191) scale(0.084 -0.084)">
       <use xlink:href="#ArialMT-30"/>
      </g>
     </g>
    </g>
    <g id="ytick_2">
     <g id="line2d_8">
      <g>
       <use xlink:href="#md4ccfabfc4" x="37.744755" y="188.10619" style="fill: #3a4b6e; stroke: #3a4b6e; stroke-width: 0.75"/>
      </g>
     </g>
     <g id="text_9">
      <!-- 20 -->
      <g transform="translate(21.90238 191.112471) scale(0.084 -0.084)">
       <use xlink:href="#ArialMT-32"/>
       <use xlink:href="#ArialMT-30" x="55.615234"/>
      </g>
     </g>
    </g>
    <g id="ytick_3">
     <g id="line2d_9">
      <g>
       <use xlink:href="#md4ccfabfc4" x="37.744755" y="155.95147" style="fill: #3a4b6e; stroke: #3a4b6e; stroke-width: 0.75"/>
      </g>
     </g>
     <g id="text_10">
      <!-- 40 -->
      <g transform="translate(21.90238 158.957751) scale(0.084 -0.084)">
       <use xlink:href="#ArialMT-34"/>
       <use xlink:href="#ArialMT-30" x="55.615234"/>
      </g>
     </g>
    </g>
    <g id="ytick_4">
     <g id="line2d_10">
      <g>
       <use xlink:href="#md4ccfabfc4" x="37.744755" y="123.79675" style="fill: #3a4b6e; stroke: #3a4b6e; stroke-width: 0.75"/>
      </g>
     </g>
     <g id="text_11">
      <!-- 60 -->
      <g transform="translate(21.90238 126.803031) scale(0.084 -0.084)">
       <use xlink:href="#ArialMT-36"/>
       <use xlink:href="#ArialMT-30" x="55.615234"/>
      </g>
     </g>
    </g>
    <g id="ytick_5">
     <g id="line2d_11">
      <g>
       <use xlink:href="#md4ccfabfc4" x="37.744755" y="91.642029" style="fill: #3a4b6e; stroke: #3a4b6e; stroke-width: 0.75"/>
      </g>
     </g>
     <g id="text_12">
      <!-- 80 -->
      <g transform="translate(21.90238 94.648311) scale(0.084 -0.084)">
       <defs>
        <path id="ArialMT-38" d="M 1131 2484 
Q 781 2613 612 2850 
Q 444 3088 444 3419 
Q 444 3919 803 4259 
Q 1163 4600 1759 4600 
Q 2359 4600 2725 4251 
Q 3091 3903 3091 3403 
Q 3091 3084 2923 2848 
Q 2756 2613 2416 2484 
Q 2838 2347 3058 2040 
Q 3278 1734 3278 1309 
Q 3278 722 2862 322 
Q 2447 -78 1769 -78 
Q 1091 -78 675 323 
Q 259 725 259 1325 
Q 259 1772 486 2073 
Q 713 2375 1131 2484 
z
M 1019 3438 
Q 1019 3113 1228 2906 
Q 1438 2700 1772 2700 
Q 2097 2700 2305 2904 
Q 2513 3109 2513 3406 
Q 2513 3716 2298 3927 
Q 2084 4138 1766 4138 
Q 1444 4138 1231 3931 
Q 1019 3725 1019 3438 
z
M 838 1322 
Q 838 1081 952 856 
Q 1066 631 1291 507 
Q 1516 384 1775 384 
Q 2178 384 2440 643 
Q 2703 903 2703 1303 
Q 2703 1709 2433 1975 
Q 2163 2241 1756 2241 
Q 1359 2241 1098 1978 
Q 838 1716 838 1322 
z
" transform="scale(0.015625)"/>
       </defs>
       <use xlink:href="#ArialMT-38"/>
       <use xlink:href="#ArialMT-30" x="55.615234"/>
      </g>
     </g>
    </g>
    <g id="ytick_6">
     <g id="line2d_12">
      <g>
       <use xlink:href="#md4ccfabfc4" x="37.744755" y="59.487309" style="fill: #3a4b6e; stroke: #3a4b6e; stroke-width: 0.75"/>
      </g>
     </g>
     <g id="text_13">
      <!-- 100 -->
      <g transform="translate(17.231192 62.493591) scale(0.084 -0.084)">
       <defs>
        <path id="ArialMT-31" d="M 2384 0 
L 1822 0 
L 1822 3584 
Q 1619 3391 1289 3197 
Q 959 3003 697 2906 
L 697 3450 
Q 1169 3672 1522 3987 
Q 1875 4303 2022 4600 
L 2384 4600 
L 2384 0 
z
" transform="scale(0.015625)"/>
       </defs>
       <use xlink:href="#ArialMT-31"/>
       <use xlink:href="#ArialMT-30" x="55.615234"/>
       <use xlink:href="#ArialMT-30" x="111.230469"/>
      </g>
     </g>
    </g>
    <g id="text_14">
     <!-- Count -->
     <g transform="translate(11.294572 137.037776) rotate(-90) scale(0.09744 -0.09744)">
      <defs>
       <path id="ArialMT-43" d="M 3763 1606 
L 4369 1453 
Q 4178 706 3683 314 
Q 3188 -78 2472 -78 
Q 1731 -78 1267 223 
Q 803 525 561 1097 
Q 319 1669 319 2325 
Q 319 3041 592 3573 
Q 866 4106 1370 4382 
Q 1875 4659 2481 4659 
Q 3169 4659 3637 4309 
Q 4106 3959 4291 3325 
L 3694 3184 
Q 3534 3684 3231 3912 
Q 2928 4141 2469 4141 
Q 1941 4141 1586 3887 
Q 1231 3634 1087 3207 
Q 944 2781 944 2328 
Q 944 1744 1114 1308 
Q 1284 872 1643 656 
Q 2003 441 2422 441 
Q 2931 441 3284 734 
Q 3638 1028 3763 1606 
z
" transform="scale(0.015625)"/>
       <path id="ArialMT-6f" d="M 213 1659 
Q 213 2581 725 3025 
Q 1153 3394 1769 3394 
Q 2453 3394 2887 2945 
Q 3322 2497 3322 1706 
Q 3322 1066 3130 698 
Q 2938 331 2570 128 
Q 2203 -75 1769 -75 
Q 1072 -75 642 372 
Q 213 819 213 1659 
z
M 791 1659 
Q 791 1022 1069 705 
Q 1347 388 1769 388 
Q 2188 388 2466 706 
Q 2744 1025 2744 1678 
Q 2744 2294 2464 2611 
Q 2184 2928 1769 2928 
Q 1347 2928 1069 2612 
Q 791 2297 791 1659 
z
" transform="scale(0.015625)"/>
       <path id="ArialMT-75" d="M 2597 0 
L 2597 488 
Q 2209 -75 1544 -75 
Q 1250 -75 995 37 
Q 741 150 617 320 
Q 494 491 444 738 
Q 409 903 409 1263 
L 409 3319 
L 972 3319 
L 972 1478 
Q 972 1038 1006 884 
Q 1059 663 1231 536 
Q 1403 409 1656 409 
Q 1909 409 2131 539 
Q 2353 669 2445 892 
Q 2538 1116 2538 1541 
L 2538 3319 
L 3100 3319 
L 3100 0 
L 2597 0 
z
" transform="scale(0.015625)"/>
       <path id="ArialMT-6e" d="M 422 0 
L 422 3319 
L 928 3319 
L 928 2847 
Q 1294 3394 1984 3394 
Q 2284 3394 2536 3286 
Q 2788 3178 2913 3003 
Q 3038 2828 3088 2588 
Q 3119 2431 3119 2041 
L 3119 0 
L 2556 0 
L 2556 2019 
Q 2556 2363 2490 2533 
Q 2425 2703 2258 2804 
Q 2091 2906 1866 2906 
Q 1506 2906 1245 2678 
Q 984 2450 984 1813 
L 984 0 
L 422 0 
z
" transform="scale(0.015625)"/>
       <path id="ArialMT-74" d="M 1650 503 
L 1731 6 
Q 1494 -44 1306 -44 
Q 1000 -44 831 53 
Q 663 150 594 308 
Q 525 466 525 972 
L 525 2881 
L 113 2881 
L 113 3319 
L 525 3319 
L 525 4141 
L 1084 4478 
L 1084 3319 
L 1650 3319 
L 1650 2881 
L 1084 2881 
L 1084 941 
Q 1084 700 1114 631 
Q 1144 563 1211 522 
Q 1278 481 1403 481 
Q 1497 481 1650 503 
z
" transform="scale(0.015625)"/>
      </defs>
      <use xlink:href="#ArialMT-43"/>
      <use xlink:href="#ArialMT-6f" x="72.216797"/>
      <use xlink:href="#ArialMT-75" x="127.832031"/>
      <use xlink:href="#ArialMT-6e" x="183.447266"/>
      <use xlink:href="#ArialMT-74" x="239.0625"/>
     </g>
    </g>
   </g>
   <g id="line2d_13">
    <path d="M 243.760721 220.26091 
L 243.760721 27.81491 
" clip-path="url(#p3426e4d735)" style="fill: none; stroke: #4e6691; stroke-width: 2; stroke-linecap: square"/>
   </g>
   <g id="line2d_14">
    <path d="M 102.732632 220.26091 
L 102.732632 27.81491 
" clip-path="url(#p3426e4d735)" style="fill: none; stroke-dasharray: 4.44,1.92; stroke-dashoffset: 0; stroke: #ba3e45; stroke-width: 1.2"/>
   </g>
   <g id="line2d_15">
    <path d="M 122.524749 220.26091 
L 122.524749 27.81491 
" clip-path="url(#p3426e4d735)" style="fill: none; stroke-dasharray: 1.2,1.98; stroke-dashoffset: 0; stroke: #d05928; stroke-width: 1.2"/>
   </g>
   <g id="patch_26">
    <path d="M 37.744755 220.26091 
L 37.744755 27.81491 
" style="fill: none; stroke: #3a4b6e; stroke-width: 0.75; stroke-linejoin: miter; stroke-linecap: square"/>
   </g>
   <g id="patch_27">
    <path d="M 37.744755 220.26091 
L 253.571005 220.26091 
" style="fill: none; stroke: #3a4b6e; stroke-width: 0.75; stroke-linejoin: miter; stroke-linecap: square"/>
   </g>
   <g id="text_15">
    <!-- LOI -->
    <g transform="translate(136.979236 11.775577) scale(0.10416 -0.10416)">
     <defs>
      <path id="Arial-BoldMT-4c" d="M 491 0 
L 491 4544 
L 1416 4544 
L 1416 772 
L 3716 772 
L 3716 0 
L 491 0 
z
" transform="scale(0.015625)"/>
      <path id="Arial-BoldMT-4f" d="M 278 2263 
Q 278 2963 488 3438 
Q 644 3788 914 4066 
Q 1184 4344 1506 4478 
Q 1934 4659 2494 4659 
Q 3506 4659 4114 4031 
Q 4722 3403 4722 2284 
Q 4722 1175 4119 548 
Q 3516 -78 2506 -78 
Q 1484 -78 881 545 
Q 278 1169 278 2263 
z
M 1231 2294 
Q 1231 1516 1590 1114 
Q 1950 713 2503 713 
Q 3056 713 3411 1111 
Q 3766 1509 3766 2306 
Q 3766 3094 3420 3481 
Q 3075 3869 2503 3869 
Q 1931 3869 1581 3476 
Q 1231 3084 1231 2294 
z
" transform="scale(0.015625)"/>
      <path id="Arial-BoldMT-49" d="M 438 0 
L 438 4581 
L 1363 4581 
L 1363 0 
L 438 0 
z
" transform="scale(0.015625)"/>
     </defs>
     <use xlink:href="#Arial-BoldMT-4c"/>
     <use xlink:href="#Arial-BoldMT-4f" x="61.083984"/>
     <use xlink:href="#Arial-BoldMT-49" x="138.867188"/>
    </g>
    <!-- p=0.001 -->
    <g transform="translate(126.403741 22.81491) scale(0.10416 -0.10416)">
     <defs>
      <path id="Arial-BoldMT-70" d="M 434 3319 
L 1253 3319 
L 1253 2831 
Q 1413 3081 1684 3237 
Q 1956 3394 2288 3394 
Q 2866 3394 3269 2941 
Q 3672 2488 3672 1678 
Q 3672 847 3265 386 
Q 2859 -75 2281 -75 
Q 2006 -75 1782 34 
Q 1559 144 1313 409 
L 1313 -1263 
L 434 -1263 
L 434 3319 
z
M 1303 1716 
Q 1303 1156 1525 889 
Q 1747 622 2066 622 
Q 2372 622 2575 867 
Q 2778 1113 2778 1672 
Q 2778 2194 2568 2447 
Q 2359 2700 2050 2700 
Q 1728 2700 1515 2451 
Q 1303 2203 1303 1716 
z
" transform="scale(0.015625)"/>
      <path id="Arial-BoldMT-3d" d="M 266 2550 
L 266 3356 
L 3469 3356 
L 3469 2550 
L 266 2550 
z
M 266 1163 
L 266 1972 
L 3469 1972 
L 3469 1163 
L 266 1163 
z
" transform="scale(0.015625)"/>
      <path id="Arial-BoldMT-30" d="M 1756 4600 
Q 2422 4600 2797 4125 
Q 3244 3563 3244 2259 
Q 3244 959 2794 391 
Q 2422 -78 1756 -78 
Q 1088 -78 678 436 
Q 269 950 269 2269 
Q 269 3563 719 4131 
Q 1091 4600 1756 4600 
z
M 1756 3872 
Q 1597 3872 1472 3770 
Q 1347 3669 1278 3406 
Q 1188 3066 1188 2259 
Q 1188 1453 1269 1151 
Q 1350 850 1473 750 
Q 1597 650 1756 650 
Q 1916 650 2041 751 
Q 2166 853 2234 1116 
Q 2325 1453 2325 2259 
Q 2325 3066 2244 3367 
Q 2163 3669 2039 3770 
Q 1916 3872 1756 3872 
z
" transform="scale(0.015625)"/>
      <path id="Arial-BoldMT-2e" d="M 459 0 
L 459 878 
L 1338 878 
L 1338 0 
L 459 0 
z
" transform="scale(0.015625)"/>
      <path id="Arial-BoldMT-31" d="M 2519 0 
L 1641 0 
L 1641 3309 
Q 1159 2859 506 2644 
L 506 3441 
Q 850 3553 1253 3867 
Q 1656 4181 1806 4600 
L 2519 4600 
L 2519 0 
z
" transform="scale(0.015625)"/>
     </defs>
     <use xlink:href="#Arial-BoldMT-70"/>
     <use xlink:href="#Arial-BoldMT-3d" x="61.083984"/>
     <use xlink:href="#Arial-BoldMT-30" x="119.482422"/>
     <use xlink:href="#Arial-BoldMT-2e" x="175.097656"/>
     <use xlink:href="#Arial-BoldMT-30" x="202.880859"/>
     <use xlink:href="#Arial-BoldMT-30" x="258.496094"/>
     <use xlink:href="#Arial-BoldMT-31" x="314.111328"/>
    </g>
   </g>
   <g id="legend_1">
    <g id="line2d_16">
     <path d="M 202.186067 36.600798 
L 207.711067 36.600798 
L 213.236067 36.600798 
" style="fill: none; stroke: #4e6691; stroke-width: 2; stroke-linecap: square"/>
    </g>
    <g id="text_16">
     <!-- Observed -->
     <g transform="translate(216.161067 38.875798) scale(0.0728 -0.0728)">
      <defs>
       <path id="ArialMT-4f" d="M 309 2231 
Q 309 3372 921 4017 
Q 1534 4663 2503 4663 
Q 3138 4663 3647 4359 
Q 4156 4056 4423 3514 
Q 4691 2972 4691 2284 
Q 4691 1588 4409 1038 
Q 4128 488 3612 205 
Q 3097 -78 2500 -78 
Q 1853 -78 1343 234 
Q 834 547 571 1087 
Q 309 1628 309 2231 
z
M 934 2222 
Q 934 1394 1379 917 
Q 1825 441 2497 441 
Q 3181 441 3623 922 
Q 4066 1403 4066 2288 
Q 4066 2847 3877 3264 
Q 3688 3681 3323 3911 
Q 2959 4141 2506 4141 
Q 1863 4141 1398 3698 
Q 934 3256 934 2222 
z
" transform="scale(0.015625)"/>
       <path id="ArialMT-62" d="M 941 0 
L 419 0 
L 419 4581 
L 981 4581 
L 981 2947 
Q 1338 3394 1891 3394 
Q 2197 3394 2470 3270 
Q 2744 3147 2920 2923 
Q 3097 2700 3197 2384 
Q 3297 2069 3297 1709 
Q 3297 856 2875 390 
Q 2453 -75 1863 -75 
Q 1275 -75 941 416 
L 941 0 
z
M 934 1684 
Q 934 1088 1097 822 
Q 1363 388 1816 388 
Q 2184 388 2453 708 
Q 2722 1028 2722 1663 
Q 2722 2313 2464 2622 
Q 2206 2931 1841 2931 
Q 1472 2931 1203 2611 
Q 934 2291 934 1684 
z
" transform="scale(0.015625)"/>
       <path id="ArialMT-73" d="M 197 991 
L 753 1078 
Q 800 744 1014 566 
Q 1228 388 1613 388 
Q 2000 388 2187 545 
Q 2375 703 2375 916 
Q 2375 1106 2209 1216 
Q 2094 1291 1634 1406 
Q 1016 1563 777 1677 
Q 538 1791 414 1992 
Q 291 2194 291 2438 
Q 291 2659 392 2848 
Q 494 3038 669 3163 
Q 800 3259 1026 3326 
Q 1253 3394 1513 3394 
Q 1903 3394 2198 3281 
Q 2494 3169 2634 2976 
Q 2775 2784 2828 2463 
L 2278 2388 
Q 2241 2644 2061 2787 
Q 1881 2931 1553 2931 
Q 1166 2931 1000 2803 
Q 834 2675 834 2503 
Q 834 2394 903 2306 
Q 972 2216 1119 2156 
Q 1203 2125 1616 2013 
Q 2213 1853 2448 1751 
Q 2684 1650 2818 1456 
Q 2953 1263 2953 975 
Q 2953 694 2789 445 
Q 2625 197 2315 61 
Q 2006 -75 1616 -75 
Q 969 -75 630 194 
Q 291 463 197 991 
z
" transform="scale(0.015625)"/>
       <path id="ArialMT-65" d="M 2694 1069 
L 3275 997 
Q 3138 488 2766 206 
Q 2394 -75 1816 -75 
Q 1088 -75 661 373 
Q 234 822 234 1631 
Q 234 2469 665 2931 
Q 1097 3394 1784 3394 
Q 2450 3394 2872 2941 
Q 3294 2488 3294 1666 
Q 3294 1616 3291 1516 
L 816 1516 
Q 847 969 1125 678 
Q 1403 388 1819 388 
Q 2128 388 2347 550 
Q 2566 713 2694 1069 
z
M 847 1978 
L 2700 1978 
Q 2663 2397 2488 2606 
Q 2219 2931 1791 2931 
Q 1403 2931 1139 2672 
Q 875 2413 847 1978 
z
" transform="scale(0.015625)"/>
       <path id="ArialMT-72" d="M 416 0 
L 416 3319 
L 922 3319 
L 922 2816 
Q 1116 3169 1280 3281 
Q 1444 3394 1641 3394 
Q 1925 3394 2219 3213 
L 2025 2691 
Q 1819 2813 1613 2813 
Q 1428 2813 1281 2702 
Q 1134 2591 1072 2394 
Q 978 2094 978 1738 
L 978 0 
L 416 0 
z
" transform="scale(0.015625)"/>
       <path id="ArialMT-76" d="M 1344 0 
L 81 3319 
L 675 3319 
L 1388 1331 
Q 1503 1009 1600 663 
Q 1675 925 1809 1294 
L 2547 3319 
L 3125 3319 
L 1869 0 
L 1344 0 
z
" transform="scale(0.015625)"/>
       <path id="ArialMT-64" d="M 2575 0 
L 2575 419 
Q 2259 -75 1647 -75 
Q 1250 -75 917 144 
Q 584 363 401 755 
Q 219 1147 219 1656 
Q 219 2153 384 2558 
Q 550 2963 881 3178 
Q 1213 3394 1622 3394 
Q 1922 3394 2156 3267 
Q 2391 3141 2538 2938 
L 2538 4581 
L 3097 4581 
L 3097 0 
L 2575 0 
z
M 797 1656 
Q 797 1019 1065 703 
Q 1334 388 1700 388 
Q 2069 388 2326 689 
Q 2584 991 2584 1609 
Q 2584 2291 2321 2609 
Q 2059 2928 1675 2928 
Q 1300 2928 1048 2622 
Q 797 2316 797 1656 
z
" transform="scale(0.015625)"/>
      </defs>
      <use xlink:href="#ArialMT-4f"/>
      <use xlink:href="#ArialMT-62" x="77.783203"/>
      <use xlink:href="#ArialMT-73" x="133.398438"/>
      <use xlink:href="#ArialMT-65" x="183.398438"/>
      <use xlink:href="#ArialMT-72" x="239.013672"/>
      <use xlink:href="#ArialMT-76" x="272.314453"/>
      <use xlink:href="#ArialMT-65" x="322.314453"/>
      <use xlink:href="#ArialMT-64" x="377.929688"/>
     </g>
    </g>
    <g id="line2d_17">
     <path d="M 202.186067 46.508585 
L 207.711067 46.508585 
L 213.236067 46.508585 
" style="fill: none; stroke-dasharray: 4.44,1.92; stroke-dashoffset: 0; stroke: #ba3e45; stroke-width: 1.2"/>
    </g>
    <g id="text_17">
     <!-- Null 95th -->
     <g transform="translate(216.161067 48.783585) scale(0.0728 -0.0728)">
      <defs>
       <path id="ArialMT-4e" d="M 488 0 
L 488 4581 
L 1109 4581 
L 3516 984 
L 3516 4581 
L 4097 4581 
L 4097 0 
L 3475 0 
L 1069 3600 
L 1069 0 
L 488 0 
z
" transform="scale(0.015625)"/>
       <path id="ArialMT-6c" d="M 409 0 
L 409 4581 
L 972 4581 
L 972 0 
L 409 0 
z
" transform="scale(0.015625)"/>
       <path id="ArialMT-20" transform="scale(0.015625)"/>
       <path id="ArialMT-39" d="M 350 1059 
L 891 1109 
Q 959 728 1153 556 
Q 1347 384 1650 384 
Q 1909 384 2104 503 
Q 2300 622 2425 820 
Q 2550 1019 2634 1356 
Q 2719 1694 2719 2044 
Q 2719 2081 2716 2156 
Q 2547 1888 2255 1720 
Q 1963 1553 1622 1553 
Q 1053 1553 659 1965 
Q 266 2378 266 3053 
Q 266 3750 677 4175 
Q 1088 4600 1706 4600 
Q 2153 4600 2523 4359 
Q 2894 4119 3086 3673 
Q 3278 3228 3278 2384 
Q 3278 1506 3087 986 
Q 2897 466 2520 194 
Q 2144 -78 1638 -78 
Q 1100 -78 759 220 
Q 419 519 350 1059 
z
M 2653 3081 
Q 2653 3566 2395 3850 
Q 2138 4134 1775 4134 
Q 1400 4134 1122 3828 
Q 844 3522 844 3034 
Q 844 2597 1108 2323 
Q 1372 2050 1759 2050 
Q 2150 2050 2401 2323 
Q 2653 2597 2653 3081 
z
" transform="scale(0.015625)"/>
       <path id="ArialMT-35" d="M 266 1200 
L 856 1250 
Q 922 819 1161 601 
Q 1400 384 1738 384 
Q 2144 384 2425 690 
Q 2706 997 2706 1503 
Q 2706 1984 2436 2262 
Q 2166 2541 1728 2541 
Q 1456 2541 1237 2417 
Q 1019 2294 894 2097 
L 366 2166 
L 809 4519 
L 3088 4519 
L 3088 3981 
L 1259 3981 
L 1013 2750 
Q 1425 3038 1878 3038 
Q 2478 3038 2890 2622 
Q 3303 2206 3303 1553 
Q 3303 931 2941 478 
Q 2500 -78 1738 -78 
Q 1113 -78 717 272 
Q 322 622 266 1200 
z
" transform="scale(0.015625)"/>
       <path id="ArialMT-68" d="M 422 0 
L 422 4581 
L 984 4581 
L 984 2938 
Q 1378 3394 1978 3394 
Q 2347 3394 2619 3248 
Q 2891 3103 3008 2847 
Q 3125 2591 3125 2103 
L 3125 0 
L 2563 0 
L 2563 2103 
Q 2563 2525 2380 2717 
Q 2197 2909 1863 2909 
Q 1613 2909 1392 2779 
Q 1172 2650 1078 2428 
Q 984 2206 984 1816 
L 984 0 
L 422 0 
z
" transform="scale(0.015625)"/>
      </defs>
      <use xlink:href="#ArialMT-4e"/>
      <use xlink:href="#ArialMT-75" x="72.216797"/>
      <use xlink:href="#ArialMT-6c" x="127.832031"/>
      <use xlink:href="#ArialMT-6c" x="150.048828"/>
      <use xlink:href="#ArialMT-20" x="172.265625"/>
      <use xlink:href="#ArialMT-39" x="200.048828"/>
      <use xlink:href="#ArialMT-35" x="255.664062"/>
      <use xlink:href="#ArialMT-74" x="311.279297"/>
      <use xlink:href="#ArialMT-68" x="339.0625"/>
     </g>
    </g>
    <g id="line2d_18">
     <path d="M 202.186067 56.416373 
L 207.711067 56.416373 
L 213.236067 56.416373 
" style="fill: none; stroke-dasharray: 1.2,1.98; stroke-dashoffset: 0; stroke: #d05928; stroke-width: 1.2"/>
    </g>
    <g id="text_18">
     <!-- Dummy -->
     <g transform="translate(216.161067 58.691372) scale(0.0728 -0.0728)">
      <defs>
       <path id="ArialMT-44" d="M 494 0 
L 494 4581 
L 2072 4581 
Q 2606 4581 2888 4516 
Q 3281 4425 3559 4188 
Q 3922 3881 4101 3404 
Q 4281 2928 4281 2316 
Q 4281 1794 4159 1391 
Q 4038 988 3847 723 
Q 3656 459 3429 307 
Q 3203 156 2883 78 
Q 2563 0 2147 0 
L 494 0 
z
M 1100 541 
L 2078 541 
Q 2531 541 2789 625 
Q 3047 709 3200 863 
Q 3416 1078 3536 1442 
Q 3656 1806 3656 2325 
Q 3656 3044 3420 3430 
Q 3184 3816 2847 3947 
Q 2603 4041 2063 4041 
L 1100 4041 
L 1100 541 
z
" transform="scale(0.015625)"/>
       <path id="ArialMT-6d" d="M 422 0 
L 422 3319 
L 925 3319 
L 925 2853 
Q 1081 3097 1340 3245 
Q 1600 3394 1931 3394 
Q 2300 3394 2536 3241 
Q 2772 3088 2869 2813 
Q 3263 3394 3894 3394 
Q 4388 3394 4653 3120 
Q 4919 2847 4919 2278 
L 4919 0 
L 4359 0 
L 4359 2091 
Q 4359 2428 4304 2576 
Q 4250 2725 4106 2815 
Q 3963 2906 3769 2906 
Q 3419 2906 3187 2673 
Q 2956 2441 2956 1928 
L 2956 0 
L 2394 0 
L 2394 2156 
Q 2394 2531 2256 2718 
Q 2119 2906 1806 2906 
Q 1569 2906 1367 2781 
Q 1166 2656 1075 2415 
Q 984 2175 984 1722 
L 984 0 
L 422 0 
z
" transform="scale(0.015625)"/>
       <path id="ArialMT-79" d="M 397 -1278 
L 334 -750 
Q 519 -800 656 -800 
Q 844 -800 956 -737 
Q 1069 -675 1141 -563 
Q 1194 -478 1313 -144 
Q 1328 -97 1363 -6 
L 103 3319 
L 709 3319 
L 1400 1397 
Q 1534 1031 1641 628 
Q 1738 1016 1872 1384 
L 2581 3319 
L 3144 3319 
L 1881 -56 
Q 1678 -603 1566 -809 
Q 1416 -1088 1222 -1217 
Q 1028 -1347 759 -1347 
Q 597 -1347 397 -1278 
z
" transform="scale(0.015625)"/>
      </defs>
      <use xlink:href="#ArialMT-44"/>
      <use xlink:href="#ArialMT-75" x="72.216797"/>
      <use xlink:href="#ArialMT-6d" x="127.832031"/>
      <use xlink:href="#ArialMT-6d" x="211.132812"/>
      <use xlink:href="#ArialMT-79" x="294.433594"/>
     </g>
    </g>
   </g>
  </g>
  <g id="axes_2">
   <g id="patch_28">
    <path d="M 294.926005 220.26091 
L 510.752255 220.26091 
L 510.752255 27.81491 
L 294.926005 27.81491 
z
" style="fill: #ffffff"/>
   </g>
   <g id="patch_29">
    <path d="M 304.736289 220.26091 
L 308.849435 220.26091 
L 308.849435 218.851049 
L 304.736289 218.851049 
z
" clip-path="url(#p2c711be0b4)" style="fill: #e9d8d2; opacity: 0.95; stroke: #a7afb8; stroke-width: 0.5; stroke-linejoin: miter"/>
   </g>
   <g id="patch_30">
    <path d="M 308.849435 220.26091 
L 312.962581 220.26091 
L 312.962581 216.031328 
L 308.849435 216.031328 
z
" clip-path="url(#p2c711be0b4)" style="fill: #e9d8d2; opacity: 0.95; stroke: #a7afb8; stroke-width: 0.5; stroke-linejoin: miter"/>
   </g>
   <g id="patch_31">
    <path d="M 312.962581 220.26091 
L 317.075726 220.26091 
L 317.075726 216.031328 
L 312.962581 216.031328 
z
" clip-path="url(#p2c711be0b4)" style="fill: #e9d8d2; opacity: 0.95; stroke: #a7afb8; stroke-width: 0.5; stroke-linejoin: miter"/>
   </g>
   <g id="patch_32">
    <path d="M 317.075726 220.26091 
L 321.188872 220.26091 
L 321.188872 211.801745 
L 317.075726 211.801745 
z
" clip-path="url(#p2c711be0b4)" style="fill: #e9d8d2; opacity: 0.95; stroke: #a7afb8; stroke-width: 0.5; stroke-linejoin: miter"/>
   </g>
   <g id="patch_33">
    <path d="M 321.188872 220.26091 
L 325.302018 220.26091 
L 325.302018 216.031328 
L 321.188872 216.031328 
z
" clip-path="url(#p2c711be0b4)" style="fill: #e9d8d2; opacity: 0.95; stroke: #a7afb8; stroke-width: 0.5; stroke-linejoin: miter"/>
   </g>
   <g id="patch_34">
    <path d="M 325.302018 220.26091 
L 329.415164 220.26091 
L 329.415164 213.211606 
L 325.302018 213.211606 
z
" clip-path="url(#p2c711be0b4)" style="fill: #e9d8d2; opacity: 0.95; stroke: #a7afb8; stroke-width: 0.5; stroke-linejoin: miter"/>
   </g>
   <g id="patch_35">
    <path d="M 329.415164 220.26091 
L 333.52831 220.26091 
L 333.52831 189.243972 
L 329.415164 189.243972 
z
" clip-path="url(#p2c711be0b4)" style="fill: #e9d8d2; opacity: 0.95; stroke: #a7afb8; stroke-width: 0.5; stroke-linejoin: miter"/>
   </g>
   <g id="patch_36">
    <path d="M 333.52831 220.26091 
L 337.641455 220.26091 
L 337.641455 192.063694 
L 333.52831 192.063694 
z
" clip-path="url(#p2c711be0b4)" style="fill: #e9d8d2; opacity: 0.95; stroke: #a7afb8; stroke-width: 0.5; stroke-linejoin: miter"/>
   </g>
   <g id="patch_37">
    <path d="M 337.641455 220.26091 
L 341.754601 220.26091 
L 341.754601 168.09606 
L 337.641455 168.09606 
z
" clip-path="url(#p2c711be0b4)" style="fill: #e9d8d2; opacity: 0.95; stroke: #a7afb8; stroke-width: 0.5; stroke-linejoin: miter"/>
   </g>
   <g id="patch_38">
    <path d="M 341.754601 220.26091 
L 345.867747 220.26091 
L 345.867747 146.948148 
L 341.754601 146.948148 
z
" clip-path="url(#p2c711be0b4)" style="fill: #e9d8d2; opacity: 0.95; stroke: #a7afb8; stroke-width: 0.5; stroke-linejoin: miter"/>
   </g>
   <g id="patch_39">
    <path d="M 345.867747 220.26091 
L 349.980893 220.26091 
L 349.980893 142.718566 
L 345.867747 142.718566 
z
" clip-path="url(#p2c711be0b4)" style="fill: #e9d8d2; opacity: 0.95; stroke: #a7afb8; stroke-width: 0.5; stroke-linejoin: miter"/>
   </g>
   <g id="patch_40">
    <path d="M 349.980893 220.26091 
L 354.094039 220.26091 
L 354.094039 97.60302 
L 349.980893 97.60302 
z
" clip-path="url(#p2c711be0b4)" style="fill: #e9d8d2; opacity: 0.95; stroke: #a7afb8; stroke-width: 0.5; stroke-linejoin: miter"/>
   </g>
   <g id="patch_41">
    <path d="M 354.094039 220.26091 
L 358.207184 220.26091 
L 358.207184 99.012881 
L 354.094039 99.012881 
z
" clip-path="url(#p2c711be0b4)" style="fill: #e9d8d2; opacity: 0.95; stroke: #a7afb8; stroke-width: 0.5; stroke-linejoin: miter"/>
   </g>
   <g id="patch_42">
    <path d="M 358.207184 220.26091 
L 362.32033 220.26091 
L 362.32033 89.143855 
L 358.207184 89.143855 
z
" clip-path="url(#p2c711be0b4)" style="fill: #e9d8d2; opacity: 0.95; stroke: #a7afb8; stroke-width: 0.5; stroke-linejoin: miter"/>
   </g>
   <g id="patch_43">
    <path d="M 362.32033 220.26091 
L 366.433476 220.26091 
L 366.433476 36.979005 
L 362.32033 36.979005 
z
" clip-path="url(#p2c711be0b4)" style="fill: #e9d8d2; opacity: 0.95; stroke: #a7afb8; stroke-width: 0.5; stroke-linejoin: miter"/>
   </g>
   <g id="patch_44">
    <path d="M 366.433476 220.26091 
L 370.546622 220.26091 
L 370.546622 82.094551 
L 366.433476 82.094551 
z
" clip-path="url(#p2c711be0b4)" style="fill: #e9d8d2; opacity: 0.95; stroke: #a7afb8; stroke-width: 0.5; stroke-linejoin: miter"/>
   </g>
   <g id="patch_45">
    <path d="M 370.546622 220.26091 
L 374.659768 220.26091 
L 374.659768 114.52135 
L 370.546622 114.52135 
z
" clip-path="url(#p2c711be0b4)" style="fill: #e9d8d2; opacity: 0.95; stroke: #a7afb8; stroke-width: 0.5; stroke-linejoin: miter"/>
   </g>
   <g id="patch_46">
    <path d="M 374.659768 220.26091 
L 378.772913 220.26091 
L 378.772913 107.472046 
L 374.659768 107.472046 
z
" clip-path="url(#p2c711be0b4)" style="fill: #e9d8d2; opacity: 0.95; stroke: #a7afb8; stroke-width: 0.5; stroke-linejoin: miter"/>
   </g>
   <g id="patch_47">
    <path d="M 378.772913 220.26091 
L 382.886059 220.26091 
L 382.886059 152.587591 
L 378.772913 152.587591 
z
" clip-path="url(#p2c711be0b4)" style="fill: #e9d8d2; opacity: 0.95; stroke: #a7afb8; stroke-width: 0.5; stroke-linejoin: miter"/>
   </g>
   <g id="patch_48">
    <path d="M 382.886059 220.26091 
L 386.999205 220.26091 
L 386.999205 166.686199 
L 382.886059 166.686199 
z
" clip-path="url(#p2c711be0b4)" style="fill: #e9d8d2; opacity: 0.95; stroke: #a7afb8; stroke-width: 0.5; stroke-linejoin: miter"/>
   </g>
   <g id="patch_49">
    <path d="M 386.999205 220.26091 
L 391.112351 220.26091 
L 391.112351 163.866478 
L 386.999205 163.866478 
z
" clip-path="url(#p2c711be0b4)" style="fill: #e9d8d2; opacity: 0.95; stroke: #a7afb8; stroke-width: 0.5; stroke-linejoin: miter"/>
   </g>
   <g id="patch_50">
    <path d="M 391.112351 220.26091 
L 395.225497 220.26091 
L 395.225497 203.34258 
L 391.112351 203.34258 
z
" clip-path="url(#p2c711be0b4)" style="fill: #e9d8d2; opacity: 0.95; stroke: #a7afb8; stroke-width: 0.5; stroke-linejoin: miter"/>
   </g>
   <g id="patch_51">
    <path d="M 395.225497 220.26091 
L 399.338642 220.26091 
L 399.338642 213.211606 
L 395.225497 213.211606 
z
" clip-path="url(#p2c711be0b4)" style="fill: #e9d8d2; opacity: 0.95; stroke: #a7afb8; stroke-width: 0.5; stroke-linejoin: miter"/>
   </g>
   <g id="matplotlib.axis_3">
    <g id="xtick_7">
     <g id="line2d_19">
      <g>
       <use xlink:href="#m3ca9263333" x="305.64029" y="220.26091" style="fill: #3a4b6e; stroke: #3a4b6e; stroke-width: 0.75"/>
      </g>
     </g>
     <g id="text_19">
      <!-- −0.8 -->
      <g transform="translate(297.349227 232.773472) scale(0.084 -0.084)">
       <use xlink:href="#ArialMT-2212"/>
       <use xlink:href="#ArialMT-30" x="58.398438"/>
       <use xlink:href="#ArialMT-2e" x="114.013672"/>
       <use xlink:href="#ArialMT-38" x="141.796875"/>
      </g>
     </g>
    </g>
    <g id="xtick_8">
     <g id="line2d_20">
      <g>
       <use xlink:href="#m3ca9263333" x="333.337098" y="220.26091" style="fill: #3a4b6e; stroke: #3a4b6e; stroke-width: 0.75"/>
      </g>
     </g>
     <g id="text_20">
      <!-- −0.6 -->
      <g transform="translate(325.046036 232.773472) scale(0.084 -0.084)">
       <use xlink:href="#ArialMT-2212"/>
       <use xlink:href="#ArialMT-30" x="58.398438"/>
       <use xlink:href="#ArialMT-2e" x="114.013672"/>
       <use xlink:href="#ArialMT-36" x="141.796875"/>
      </g>
     </g>
    </g>
    <g id="xtick_9">
     <g id="line2d_21">
      <g>
       <use xlink:href="#m3ca9263333" x="361.033906" y="220.26091" style="fill: #3a4b6e; stroke: #3a4b6e; stroke-width: 0.75"/>
      </g>
     </g>
     <g id="text_21">
      <!-- −0.4 -->
      <g transform="translate(352.742844 232.773472) scale(0.084 -0.084)">
       <use xlink:href="#ArialMT-2212"/>
       <use xlink:href="#ArialMT-30" x="58.398438"/>
       <use xlink:href="#ArialMT-2e" x="114.013672"/>
       <use xlink:href="#ArialMT-34" x="141.796875"/>
      </g>
     </g>
    </g>
    <g id="xtick_10">
     <g id="line2d_22">
      <g>
       <use xlink:href="#m3ca9263333" x="388.730715" y="220.26091" style="fill: #3a4b6e; stroke: #3a4b6e; stroke-width: 0.75"/>
      </g>
     </g>
     <g id="text_22">
      <!-- −0.2 -->
      <g transform="translate(380.439652 232.773472) scale(0.084 -0.084)">
       <use xlink:href="#ArialMT-2212"/>
       <use xlink:href="#ArialMT-30" x="58.398438"/>
       <use xlink:href="#ArialMT-2e" x="114.013672"/>
       <use xlink:href="#ArialMT-32" x="141.796875"/>
      </g>
     </g>
    </g>
    <g id="xtick_11">
     <g id="line2d_23">
      <g>
       <use xlink:href="#m3ca9263333" x="416.427523" y="220.26091" style="fill: #3a4b6e; stroke: #3a4b6e; stroke-width: 0.75"/>
      </g>
     </g>
     <g id="text_23">
      <!-- 0.0 -->
      <g transform="translate(410.589523 232.773472) scale(0.084 -0.084)">
       <use xlink:href="#ArialMT-30"/>
       <use xlink:href="#ArialMT-2e" x="55.615234"/>
       <use xlink:href="#ArialMT-30" x="83.398438"/>
      </g>
     </g>
    </g>
    <g id="xtick_12">
     <g id="line2d_24">
      <g>
       <use xlink:href="#m3ca9263333" x="444.124331" y="220.26091" style="fill: #3a4b6e; stroke: #3a4b6e; stroke-width: 0.75"/>
      </g>
     </g>
     <g id="text_24">
      <!-- 0.2 -->
      <g transform="translate(438.286331 232.773472) scale(0.084 -0.084)">
       <use xlink:href="#ArialMT-30"/>
       <use xlink:href="#ArialMT-2e" x="55.615234"/>
       <use xlink:href="#ArialMT-32" x="83.398438"/>
      </g>
     </g>
    </g>
    <g id="xtick_13">
     <g id="line2d_25">
      <g>
       <use xlink:href="#m3ca9263333" x="471.821139" y="220.26091" style="fill: #3a4b6e; stroke: #3a4b6e; stroke-width: 0.75"/>
      </g>
     </g>
     <g id="text_25">
      <!-- 0.4 -->
      <g transform="translate(465.983139 232.773472) scale(0.084 -0.084)">
       <use xlink:href="#ArialMT-30"/>
       <use xlink:href="#ArialMT-2e" x="55.615234"/>
       <use xlink:href="#ArialMT-34" x="83.398438"/>
      </g>
     </g>
    </g>
    <g id="xtick_14">
     <g id="line2d_26">
      <g>
       <use xlink:href="#m3ca9263333" x="499.517948" y="220.26091" style="fill: #3a4b6e; stroke: #3a4b6e; stroke-width: 0.75"/>
      </g>
     </g>
     <g id="text_26">
      <!-- 0.6 -->
      <g transform="translate(494.305448 232.129269) scale(0.075 -0.075)">
       <use xlink:href="#ArialMT-30"/>
       <use xlink:href="#ArialMT-2e" x="55.615234"/>
       <use xlink:href="#ArialMT-36" x="83.398438"/>
      </g>
     </g>
    </g>
    <g id="text_27">
     <!-- R2 -->
     <g transform="translate(396.611344 245.417545) scale(0.09744 -0.09744)">
      <use xlink:href="#ArialMT-52"/>
      <use xlink:href="#ArialMT-32" x="72.216797"/>
     </g>
    </g>
   </g>
   <g id="matplotlib.axis_4">
    <g id="ytick_7">
     <g id="line2d_27">
      <g>
       <use xlink:href="#md4ccfabfc4" x="294.926005" y="220.26091" style="fill: #3a4b6e; stroke: #3a4b6e; stroke-width: 0.75"/>
      </g>
     </g>
     <g id="text_28">
      <!-- 0 -->
      <g transform="translate(283.754818 223.267191) scale(0.084 -0.084)">
       <use xlink:href="#ArialMT-30"/>
      </g>
     </g>
    </g>
    <g id="ytick_8">
     <g id="line2d_28">
      <g>
       <use xlink:href="#md4ccfabfc4" x="294.926005" y="192.063694" style="fill: #3a4b6e; stroke: #3a4b6e; stroke-width: 0.75"/>
      </g>
     </g>
     <g id="text_29">
      <!-- 20 -->
      <g transform="translate(279.08363 195.069975) scale(0.084 -0.084)">
       <use xlink:href="#ArialMT-32"/>
       <use xlink:href="#ArialMT-30" x="55.615234"/>
      </g>
     </g>
    </g>
    <g id="ytick_9">
     <g id="line2d_29">
      <g>
       <use xlink:href="#md4ccfabfc4" x="294.926005" y="163.866478" style="fill: #3a4b6e; stroke: #3a4b6e; stroke-width: 0.75"/>
      </g>
     </g>
     <g id="text_30">
      <!-- 40 -->
      <g transform="translate(279.08363 166.872759) scale(0.084 -0.084)">
       <use xlink:href="#ArialMT-34"/>
       <use xlink:href="#ArialMT-30" x="55.615234"/>
      </g>
     </g>
    </g>
    <g id="ytick_10">
     <g id="line2d_30">
      <g>
       <use xlink:href="#md4ccfabfc4" x="294.926005" y="135.669262" style="fill: #3a4b6e; stroke: #3a4b6e; stroke-width: 0.75"/>
      </g>
     </g>
     <g id="text_31">
      <!-- 60 -->
      <g transform="translate(279.08363 138.675543) scale(0.084 -0.084)">
       <use xlink:href="#ArialMT-36"/>
       <use xlink:href="#ArialMT-30" x="55.615234"/>
      </g>
     </g>
    </g>
    <g id="ytick_11">
     <g id="line2d_31">
      <g>
       <use xlink:href="#md4ccfabfc4" x="294.926005" y="107.472046" style="fill: #3a4b6e; stroke: #3a4b6e; stroke-width: 0.75"/>
      </g>
     </g>
     <g id="text_32">
      <!-- 80 -->
      <g transform="translate(279.08363 110.478327) scale(0.084 -0.084)">
       <use xlink:href="#ArialMT-38"/>
       <use xlink:href="#ArialMT-30" x="55.615234"/>
      </g>
     </g>
    </g>
    <g id="ytick_12">
     <g id="line2d_32">
      <g>
       <use xlink:href="#md4ccfabfc4" x="294.926005" y="79.274829" style="fill: #3a4b6e; stroke: #3a4b6e; stroke-width: 0.75"/>
      </g>
     </g>
     <g id="text_33">
      <!-- 100 -->
      <g transform="translate(274.412442 82.281111) scale(0.084 -0.084)">
       <use xlink:href="#ArialMT-31"/>
       <use xlink:href="#ArialMT-30" x="55.615234"/>
       <use xlink:href="#ArialMT-30" x="111.230469"/>
      </g>
     </g>
    </g>
    <g id="ytick_13">
     <g id="line2d_33">
      <g>
       <use xlink:href="#md4ccfabfc4" x="294.926005" y="51.077613" style="fill: #3a4b6e; stroke: #3a4b6e; stroke-width: 0.75"/>
      </g>
     </g>
     <g id="text_34">
      <!-- 120 -->
      <g transform="translate(274.412442 54.083895) scale(0.084 -0.084)">
       <use xlink:href="#ArialMT-31"/>
       <use xlink:href="#ArialMT-32" x="55.615234"/>
       <use xlink:href="#ArialMT-30" x="111.230469"/>
      </g>
     </g>
    </g>
    <g id="text_35">
     <!-- Count -->
     <g transform="translate(268.475822 137.037776) rotate(-90) scale(0.09744 -0.09744)">
      <use xlink:href="#ArialMT-43"/>
      <use xlink:href="#ArialMT-6f" x="72.216797"/>
      <use xlink:href="#ArialMT-75" x="127.832031"/>
      <use xlink:href="#ArialMT-6e" x="183.447266"/>
      <use xlink:href="#ArialMT-74" x="239.0625"/>
     </g>
    </g>
   </g>
   <g id="line2d_34">
    <path d="M 500.941971 220.26091 
L 500.941971 27.81491 
" clip-path="url(#p2c711be0b4)" style="fill: none; stroke: #ba3e45; stroke-width: 2; stroke-linecap: square"/>
   </g>
   <g id="line2d_35">
    <path d="M 387.826865 220.26091 
L 387.826865 27.81491 
" clip-path="url(#p2c711be0b4)" style="fill: none; stroke-dasharray: 4.44,1.92; stroke-dashoffset: 0; stroke: #ba3e45; stroke-width: 1.2"/>
   </g>
   <g id="line2d_36">
    <path d="M 405.883737 220.26091 
L 405.883737 27.81491 
" clip-path="url(#p2c711be0b4)" style="fill: none; stroke-dasharray: 1.2,1.98; stroke-dashoffset: 0; stroke: #d05928; stroke-width: 1.2"/>
   </g>
   <g id="patch_52">
    <path d="M 294.926005 220.26091 
L 294.926005 27.81491 
" style="fill: none; stroke: #3a4b6e; stroke-width: 0.75; stroke-linejoin: miter; stroke-linecap: square"/>
   </g>
   <g id="patch_53">
    <path d="M 294.926005 220.26091 
L 510.752255 220.26091 
" style="fill: none; stroke: #3a4b6e; stroke-width: 0.75; stroke-linejoin: miter; stroke-linecap: square"/>
   </g>
   <g id="text_36">
    <!-- PHRR -->
    <g transform="translate(388.081774 11.775577) scale(0.10416 -0.10416)">
     <defs>
      <path id="Arial-BoldMT-50" d="M 466 0 
L 466 4581 
L 1950 4581 
Q 2794 4581 3050 4513 
Q 3444 4409 3709 4064 
Q 3975 3719 3975 3172 
Q 3975 2750 3822 2462 
Q 3669 2175 3433 2011 
Q 3197 1847 2953 1794 
Q 2622 1728 1994 1728 
L 1391 1728 
L 1391 0 
L 466 0 
z
M 1391 3806 
L 1391 2506 
L 1897 2506 
Q 2444 2506 2628 2578 
Q 2813 2650 2917 2803 
Q 3022 2956 3022 3159 
Q 3022 3409 2875 3571 
Q 2728 3734 2503 3775 
Q 2338 3806 1838 3806 
L 1391 3806 
z
" transform="scale(0.015625)"/>
      <path id="Arial-BoldMT-48" d="M 469 0 
L 469 4581 
L 1394 4581 
L 1394 2778 
L 3206 2778 
L 3206 4581 
L 4131 4581 
L 4131 0 
L 3206 0 
L 3206 2003 
L 1394 2003 
L 1394 0 
L 469 0 
z
" transform="scale(0.015625)"/>
      <path id="Arial-BoldMT-52" d="M 469 0 
L 469 4581 
L 2416 4581 
Q 3150 4581 3483 4457 
Q 3816 4334 4016 4018 
Q 4216 3703 4216 3297 
Q 4216 2781 3912 2445 
Q 3609 2109 3006 2022 
Q 3306 1847 3501 1637 
Q 3697 1428 4028 894 
L 4588 0 
L 3481 0 
L 2813 997 
Q 2456 1531 2325 1670 
Q 2194 1809 2047 1861 
Q 1900 1913 1581 1913 
L 1394 1913 
L 1394 0 
L 469 0 
z
M 1394 2644 
L 2078 2644 
Q 2744 2644 2909 2700 
Q 3075 2756 3169 2893 
Q 3263 3031 3263 3238 
Q 3263 3469 3139 3611 
Q 3016 3753 2791 3791 
Q 2678 3806 2116 3806 
L 1394 3806 
L 1394 2644 
z
" transform="scale(0.015625)"/>
     </defs>
     <use xlink:href="#Arial-BoldMT-50"/>
     <use xlink:href="#Arial-BoldMT-48" x="66.699219"/>
     <use xlink:href="#Arial-BoldMT-52" x="138.916016"/>
     <use xlink:href="#Arial-BoldMT-52" x="211.132812"/>
    </g>
    <!-- p=0.001 -->
    <g transform="translate(383.584991 22.81491) scale(0.10416 -0.10416)">
     <use xlink:href="#Arial-BoldMT-70"/>
     <use xlink:href="#Arial-BoldMT-3d" x="61.083984"/>
     <use xlink:href="#Arial-BoldMT-30" x="119.482422"/>
     <use xlink:href="#Arial-BoldMT-2e" x="175.097656"/>
     <use xlink:href="#Arial-BoldMT-30" x="202.880859"/>
     <use xlink:href="#Arial-BoldMT-30" x="258.496094"/>
     <use xlink:href="#Arial-BoldMT-31" x="314.111328"/>
    </g>
   </g>
   <g id="legend_2">
    <g id="line2d_37">
     <path d="M 300.776005 36.600798 
L 306.301005 36.600798 
L 311.826005 36.600798 
" style="fill: none; stroke: #ba3e45; stroke-width: 2; stroke-linecap: square"/>
    </g>
    <g id="text_37">
     <!-- Observed -->
     <g transform="translate(314.751005 38.875798) scale(0.0728 -0.0728)">
      <use xlink:href="#ArialMT-4f"/>
      <use xlink:href="#ArialMT-62" x="77.783203"/>
      <use xlink:href="#ArialMT-73" x="133.398438"/>
      <use xlink:href="#ArialMT-65" x="183.398438"/>
      <use xlink:href="#ArialMT-72" x="239.013672"/>
      <use xlink:href="#ArialMT-76" x="272.314453"/>
      <use xlink:href="#ArialMT-65" x="322.314453"/>
      <use xlink:href="#ArialMT-64" x="377.929688"/>
     </g>
    </g>
    <g id="line2d_38">
     <path d="M 300.776005 46.508585 
L 306.301005 46.508585 
L 311.826005 46.508585 
" style="fill: none; stroke-dasharray: 4.44,1.92; stroke-dashoffset: 0; stroke: #ba3e45; stroke-width: 1.2"/>
    </g>
    <g id="text_38">
     <!-- Null 95th -->
     <g transform="translate(314.751005 48.783585) scale(0.0728 -0.0728)">
      <use xlink:href="#ArialMT-4e"/>
      <use xlink:href="#ArialMT-75" x="72.216797"/>
      <use xlink:href="#ArialMT-6c" x="127.832031"/>
      <use xlink:href="#ArialMT-6c" x="150.048828"/>
      <use xlink:href="#ArialMT-20" x="172.265625"/>
      <use xlink:href="#ArialMT-39" x="200.048828"/>
      <use xlink:href="#ArialMT-35" x="255.664062"/>
      <use xlink:href="#ArialMT-74" x="311.279297"/>
      <use xlink:href="#ArialMT-68" x="339.0625"/>
     </g>
    </g>
    <g id="line2d_39">
     <path d="M 300.776005 56.416373 
L 306.301005 56.416373 
L 311.826005 56.416373 
" style="fill: none; stroke-dasharray: 1.2,1.98; stroke-dashoffset: 0; stroke: #d05928; stroke-width: 1.2"/>
    </g>
    <g id="text_39">
     <!-- Dummy -->
     <g transform="translate(314.751005 58.691372) scale(0.0728 -0.0728)">
      <use xlink:href="#ArialMT-44"/>
      <use xlink:href="#ArialMT-75" x="72.216797"/>
      <use xlink:href="#ArialMT-6d" x="127.832031"/>
      <use xlink:href="#ArialMT-6d" x="211.132812"/>
      <use xlink:href="#ArialMT-79" x="294.433594"/>
     </g>
    </g>
   </g>
  </g>
  <g id="axes_3">
   <g id="patch_54">
    <path d="M 552.107255 220.26091 
L 767.933505 220.26091 
L 767.933505 27.81491 
L 552.107255 27.81491 
z
" style="fill: #ffffff"/>
   </g>
   <g id="patch_55">
    <path d="M 561.917539 220.26091 
L 565.118859 220.26091 
L 565.118859 218.579425 
L 561.917539 218.579425 
z
" clip-path="url(#p5ecee876a6)" style="fill: #e9d8d2; opacity: 0.95; stroke: #a7afb8; stroke-width: 0.5; stroke-linejoin: miter"/>
   </g>
   <g id="patch_56">
    <path d="M 565.118859 220.26091 
L 568.320179 220.26091 
L 568.320179 220.26091 
L 565.118859 220.26091 
z
" clip-path="url(#p5ecee876a6)" style="fill: #e9d8d2; opacity: 0.95; stroke: #a7afb8; stroke-width: 0.5; stroke-linejoin: miter"/>
   </g>
   <g id="patch_57">
    <path d="M 568.320179 220.26091 
L 571.521499 220.26091 
L 571.521499 220.26091 
L 568.320179 220.26091 
z
" clip-path="url(#p5ecee876a6)" style="fill: #e9d8d2; opacity: 0.95; stroke: #a7afb8; stroke-width: 0.5; stroke-linejoin: miter"/>
   </g>
   <g id="patch_58">
    <path d="M 571.521499 220.26091 
L 574.722819 220.26091 
L 574.722819 218.579425 
L 571.521499 218.579425 
z
" clip-path="url(#p5ecee876a6)" style="fill: #e9d8d2; opacity: 0.95; stroke: #a7afb8; stroke-width: 0.5; stroke-linejoin: miter"/>
   </g>
   <g id="patch_59">
    <path d="M 574.722819 220.26091 
L 577.924139 220.26091 
L 577.924139 220.26091 
L 574.722819 220.26091 
z
" clip-path="url(#p5ecee876a6)" style="fill: #e9d8d2; opacity: 0.95; stroke: #a7afb8; stroke-width: 0.5; stroke-linejoin: miter"/>
   </g>
   <g id="patch_60">
    <path d="M 577.924139 220.26091 
L 581.12546 220.26091 
L 581.12546 220.26091 
L 577.924139 220.26091 
z
" clip-path="url(#p5ecee876a6)" style="fill: #e9d8d2; opacity: 0.95; stroke: #a7afb8; stroke-width: 0.5; stroke-linejoin: miter"/>
   </g>
   <g id="patch_61">
    <path d="M 581.12546 220.26091 
L 584.32678 220.26091 
L 584.32678 220.26091 
L 581.12546 220.26091 
z
" clip-path="url(#p5ecee876a6)" style="fill: #e9d8d2; opacity: 0.95; stroke: #a7afb8; stroke-width: 0.5; stroke-linejoin: miter"/>
   </g>
   <g id="patch_62">
    <path d="M 584.32678 220.26091 
L 587.5281 220.26091 
L 587.5281 220.26091 
L 584.32678 220.26091 
z
" clip-path="url(#p5ecee876a6)" style="fill: #e9d8d2; opacity: 0.95; stroke: #a7afb8; stroke-width: 0.5; stroke-linejoin: miter"/>
   </g>
   <g id="patch_63">
    <path d="M 587.5281 220.26091 
L 590.72942 220.26091 
L 590.72942 218.579425 
L 587.5281 218.579425 
z
" clip-path="url(#p5ecee876a6)" style="fill: #e9d8d2; opacity: 0.95; stroke: #a7afb8; stroke-width: 0.5; stroke-linejoin: miter"/>
   </g>
   <g id="patch_64">
    <path d="M 590.72942 220.26091 
L 593.93074 220.26091 
L 593.93074 220.26091 
L 590.72942 220.26091 
z
" clip-path="url(#p5ecee876a6)" style="fill: #e9d8d2; opacity: 0.95; stroke: #a7afb8; stroke-width: 0.5; stroke-linejoin: miter"/>
   </g>
   <g id="patch_65">
    <path d="M 593.93074 220.26091 
L 597.13206 220.26091 
L 597.13206 220.26091 
L 593.93074 220.26091 
z
" clip-path="url(#p5ecee876a6)" style="fill: #e9d8d2; opacity: 0.95; stroke: #a7afb8; stroke-width: 0.5; stroke-linejoin: miter"/>
   </g>
   <g id="patch_66">
    <path d="M 597.13206 220.26091 
L 600.33338 220.26091 
L 600.33338 218.579425 
L 597.13206 218.579425 
z
" clip-path="url(#p5ecee876a6)" style="fill: #e9d8d2; opacity: 0.95; stroke: #a7afb8; stroke-width: 0.5; stroke-linejoin: miter"/>
   </g>
   <g id="patch_67">
    <path d="M 600.33338 220.26091 
L 603.5347 220.26091 
L 603.5347 220.26091 
L 600.33338 220.26091 
z
" clip-path="url(#p5ecee876a6)" style="fill: #e9d8d2; opacity: 0.95; stroke: #a7afb8; stroke-width: 0.5; stroke-linejoin: miter"/>
   </g>
   <g id="patch_68">
    <path d="M 603.5347 220.26091 
L 606.73602 220.26091 
L 606.73602 220.26091 
L 603.5347 220.26091 
z
" clip-path="url(#p5ecee876a6)" style="fill: #e9d8d2; opacity: 0.95; stroke: #a7afb8; stroke-width: 0.5; stroke-linejoin: miter"/>
   </g>
   <g id="patch_69">
    <path d="M 606.73602 220.26091 
L 609.93734 220.26091 
L 609.93734 215.216454 
L 606.73602 215.216454 
z
" clip-path="url(#p5ecee876a6)" style="fill: #e9d8d2; opacity: 0.95; stroke: #a7afb8; stroke-width: 0.5; stroke-linejoin: miter"/>
   </g>
   <g id="patch_70">
    <path d="M 609.93734 220.26091 
L 613.13866 220.26091 
L 613.13866 215.216454 
L 609.93734 215.216454 
z
" clip-path="url(#p5ecee876a6)" style="fill: #e9d8d2; opacity: 0.95; stroke: #a7afb8; stroke-width: 0.5; stroke-linejoin: miter"/>
   </g>
   <g id="patch_71">
    <path d="M 613.13866 220.26091 
L 616.33998 220.26091 
L 616.33998 211.853483 
L 613.13866 211.853483 
z
" clip-path="url(#p5ecee876a6)" style="fill: #e9d8d2; opacity: 0.95; stroke: #a7afb8; stroke-width: 0.5; stroke-linejoin: miter"/>
   </g>
   <g id="patch_72">
    <path d="M 616.33998 220.26091 
L 619.541301 220.26091 
L 619.541301 218.579425 
L 616.33998 218.579425 
z
" clip-path="url(#p5ecee876a6)" style="fill: #e9d8d2; opacity: 0.95; stroke: #a7afb8; stroke-width: 0.5; stroke-linejoin: miter"/>
   </g>
   <g id="patch_73">
    <path d="M 619.541301 220.26091 
L 622.742621 220.26091 
L 622.742621 211.853483 
L 619.541301 211.853483 
z
" clip-path="url(#p5ecee876a6)" style="fill: #e9d8d2; opacity: 0.95; stroke: #a7afb8; stroke-width: 0.5; stroke-linejoin: miter"/>
   </g>
   <g id="patch_74">
    <path d="M 622.742621 220.26091 
L 625.943941 220.26091 
L 625.943941 210.171998 
L 622.742621 210.171998 
z
" clip-path="url(#p5ecee876a6)" style="fill: #e9d8d2; opacity: 0.95; stroke: #a7afb8; stroke-width: 0.5; stroke-linejoin: miter"/>
   </g>
   <g id="patch_75">
    <path d="M 625.943941 220.26091 
L 629.145261 220.26091 
L 629.145261 195.03863 
L 625.943941 195.03863 
z
" clip-path="url(#p5ecee876a6)" style="fill: #e9d8d2; opacity: 0.95; stroke: #a7afb8; stroke-width: 0.5; stroke-linejoin: miter"/>
   </g>
   <g id="patch_76">
    <path d="M 629.145261 220.26091 
L 632.346581 220.26091 
L 632.346581 188.312688 
L 629.145261 188.312688 
z
" clip-path="url(#p5ecee876a6)" style="fill: #e9d8d2; opacity: 0.95; stroke: #a7afb8; stroke-width: 0.5; stroke-linejoin: miter"/>
   </g>
   <g id="patch_77">
    <path d="M 632.346581 220.26091 
L 635.547901 220.26091 
L 635.547901 186.631203 
L 632.346581 186.631203 
z
" clip-path="url(#p5ecee876a6)" style="fill: #e9d8d2; opacity: 0.95; stroke: #a7afb8; stroke-width: 0.5; stroke-linejoin: miter"/>
   </g>
   <g id="patch_78">
    <path d="M 635.547901 220.26091 
L 638.749221 220.26091 
L 638.749221 154.682981 
L 635.547901 154.682981 
z
" clip-path="url(#p5ecee876a6)" style="fill: #e9d8d2; opacity: 0.95; stroke: #a7afb8; stroke-width: 0.5; stroke-linejoin: miter"/>
   </g>
   <g id="patch_79">
    <path d="M 638.749221 220.26091 
L 641.950541 220.26091 
L 641.950541 127.779215 
L 638.749221 127.779215 
z
" clip-path="url(#p5ecee876a6)" style="fill: #e9d8d2; opacity: 0.95; stroke: #a7afb8; stroke-width: 0.5; stroke-linejoin: miter"/>
   </g>
   <g id="patch_80">
    <path d="M 641.950541 220.26091 
L 645.151861 220.26091 
L 645.151861 139.549612 
L 641.950541 139.549612 
z
" clip-path="url(#p5ecee876a6)" style="fill: #e9d8d2; opacity: 0.95; stroke: #a7afb8; stroke-width: 0.5; stroke-linejoin: miter"/>
   </g>
   <g id="patch_81">
    <path d="M 645.151861 220.26091 
L 648.353181 220.26091 
L 648.353181 77.334654 
L 645.151861 77.334654 
z
" clip-path="url(#p5ecee876a6)" style="fill: #e9d8d2; opacity: 0.95; stroke: #a7afb8; stroke-width: 0.5; stroke-linejoin: miter"/>
   </g>
   <g id="patch_82">
    <path d="M 648.353181 220.26091 
L 651.554501 220.26091 
L 651.554501 36.979005 
L 648.353181 36.979005 
z
" clip-path="url(#p5ecee876a6)" style="fill: #e9d8d2; opacity: 0.95; stroke: #a7afb8; stroke-width: 0.5; stroke-linejoin: miter"/>
   </g>
   <g id="patch_83">
    <path d="M 651.554501 220.26091 
L 654.755821 220.26091 
L 654.755821 36.979005 
L 651.554501 36.979005 
z
" clip-path="url(#p5ecee876a6)" style="fill: #e9d8d2; opacity: 0.95; stroke: #a7afb8; stroke-width: 0.5; stroke-linejoin: miter"/>
   </g>
   <g id="patch_84">
    <path d="M 654.755821 220.26091 
L 657.957142 220.26091 
L 657.957142 62.201286 
L 654.755821 62.201286 
z
" clip-path="url(#p5ecee876a6)" style="fill: #e9d8d2; opacity: 0.95; stroke: #a7afb8; stroke-width: 0.5; stroke-linejoin: miter"/>
   </g>
   <g id="patch_85">
    <path d="M 657.957142 220.26091 
L 661.158462 220.26091 
L 661.158462 52.112374 
L 657.957142 52.112374 
z
" clip-path="url(#p5ecee876a6)" style="fill: #e9d8d2; opacity: 0.95; stroke: #a7afb8; stroke-width: 0.5; stroke-linejoin: miter"/>
   </g>
   <g id="patch_86">
    <path d="M 661.158462 220.26091 
L 664.359782 220.26091 
L 664.359782 90.786537 
L 661.158462 90.786537 
z
" clip-path="url(#p5ecee876a6)" style="fill: #e9d8d2; opacity: 0.95; stroke: #a7afb8; stroke-width: 0.5; stroke-linejoin: miter"/>
   </g>
   <g id="patch_87">
    <path d="M 664.359782 220.26091 
L 667.561102 220.26091 
L 667.561102 90.786537 
L 664.359782 90.786537 
z
" clip-path="url(#p5ecee876a6)" style="fill: #e9d8d2; opacity: 0.95; stroke: #a7afb8; stroke-width: 0.5; stroke-linejoin: miter"/>
   </g>
   <g id="patch_88">
    <path d="M 667.561102 220.26091 
L 670.762422 220.26091 
L 670.762422 158.045952 
L 667.561102 158.045952 
z
" clip-path="url(#p5ecee876a6)" style="fill: #e9d8d2; opacity: 0.95; stroke: #a7afb8; stroke-width: 0.5; stroke-linejoin: miter"/>
   </g>
   <g id="patch_89">
    <path d="M 670.762422 220.26091 
L 673.963742 220.26091 
L 673.963742 146.275554 
L 670.762422 146.275554 
z
" clip-path="url(#p5ecee876a6)" style="fill: #e9d8d2; opacity: 0.95; stroke: #a7afb8; stroke-width: 0.5; stroke-linejoin: miter"/>
   </g>
   <g id="patch_90">
    <path d="M 673.963742 220.26091 
L 677.165062 220.26091 
L 677.165062 184.949717 
L 673.963742 184.949717 
z
" clip-path="url(#p5ecee876a6)" style="fill: #e9d8d2; opacity: 0.95; stroke: #a7afb8; stroke-width: 0.5; stroke-linejoin: miter"/>
   </g>
   <g id="patch_91">
    <path d="M 677.165062 220.26091 
L 680.366382 220.26091 
L 680.366382 195.03863 
L 677.165062 195.03863 
z
" clip-path="url(#p5ecee876a6)" style="fill: #e9d8d2; opacity: 0.95; stroke: #a7afb8; stroke-width: 0.5; stroke-linejoin: miter"/>
   </g>
   <g id="patch_92">
    <path d="M 680.366382 220.26091 
L 683.567702 220.26091 
L 683.567702 213.534969 
L 680.366382 213.534969 
z
" clip-path="url(#p5ecee876a6)" style="fill: #e9d8d2; opacity: 0.95; stroke: #a7afb8; stroke-width: 0.5; stroke-linejoin: miter"/>
   </g>
   <g id="patch_93">
    <path d="M 683.567702 220.26091 
L 686.769022 220.26091 
L 686.769022 218.579425 
L 683.567702 218.579425 
z
" clip-path="url(#p5ecee876a6)" style="fill: #e9d8d2; opacity: 0.95; stroke: #a7afb8; stroke-width: 0.5; stroke-linejoin: miter"/>
   </g>
   <g id="patch_94">
    <path d="M 686.769022 220.26091 
L 689.970342 220.26091 
L 689.970342 215.216454 
L 686.769022 215.216454 
z
" clip-path="url(#p5ecee876a6)" style="fill: #e9d8d2; opacity: 0.95; stroke: #a7afb8; stroke-width: 0.5; stroke-linejoin: miter"/>
   </g>
   <g id="matplotlib.axis_5">
    <g id="xtick_15">
     <g id="line2d_40">
      <g>
       <use xlink:href="#m3ca9263333" x="562.314168" y="220.26091" style="fill: #3a4b6e; stroke: #3a4b6e; stroke-width: 0.75"/>
      </g>
     </g>
     <g id="text_40">
      <!-- −0.8 -->
      <g transform="translate(554.023106 232.773472) scale(0.084 -0.084)">
       <use xlink:href="#ArialMT-2212"/>
       <use xlink:href="#ArialMT-30" x="58.398438"/>
       <use xlink:href="#ArialMT-2e" x="114.013672"/>
       <use xlink:href="#ArialMT-38" x="141.796875"/>
      </g>
     </g>
    </g>
    <g id="xtick_16">
     <g id="line2d_41">
      <g>
       <use xlink:href="#m3ca9263333" x="593.173409" y="220.26091" style="fill: #3a4b6e; stroke: #3a4b6e; stroke-width: 0.75"/>
      </g>
     </g>
     <g id="text_41">
      <!-- −0.6 -->
      <g transform="translate(584.882347 232.773472) scale(0.084 -0.084)">
       <use xlink:href="#ArialMT-2212"/>
       <use xlink:href="#ArialMT-30" x="58.398438"/>
       <use xlink:href="#ArialMT-2e" x="114.013672"/>
       <use xlink:href="#ArialMT-36" x="141.796875"/>
      </g>
     </g>
    </g>
    <g id="xtick_17">
     <g id="line2d_42">
      <g>
       <use xlink:href="#m3ca9263333" x="624.03265" y="220.26091" style="fill: #3a4b6e; stroke: #3a4b6e; stroke-width: 0.75"/>
      </g>
     </g>
     <g id="text_42">
      <!-- −0.4 -->
      <g transform="translate(615.741587 232.773472) scale(0.084 -0.084)">
       <use xlink:href="#ArialMT-2212"/>
       <use xlink:href="#ArialMT-30" x="58.398438"/>
       <use xlink:href="#ArialMT-2e" x="114.013672"/>
       <use xlink:href="#ArialMT-34" x="141.796875"/>
      </g>
     </g>
    </g>
    <g id="xtick_18">
     <g id="line2d_43">
      <g>
       <use xlink:href="#m3ca9263333" x="654.891891" y="220.26091" style="fill: #3a4b6e; stroke: #3a4b6e; stroke-width: 0.75"/>
      </g>
     </g>
     <g id="text_43">
      <!-- −0.2 -->
      <g transform="translate(646.600828 232.773472) scale(0.084 -0.084)">
       <use xlink:href="#ArialMT-2212"/>
       <use xlink:href="#ArialMT-30" x="58.398438"/>
       <use xlink:href="#ArialMT-2e" x="114.013672"/>
       <use xlink:href="#ArialMT-32" x="141.796875"/>
      </g>
     </g>
    </g>
    <g id="xtick_19">
     <g id="line2d_44">
      <g>
       <use xlink:href="#m3ca9263333" x="685.751131" y="220.26091" style="fill: #3a4b6e; stroke: #3a4b6e; stroke-width: 0.75"/>
      </g>
     </g>
     <g id="text_44">
      <!-- 0.0 -->
      <g transform="translate(679.913131 232.773472) scale(0.084 -0.084)">
       <use xlink:href="#ArialMT-30"/>
       <use xlink:href="#ArialMT-2e" x="55.615234"/>
       <use xlink:href="#ArialMT-30" x="83.398438"/>
      </g>
     </g>
    </g>
    <g id="xtick_20">
     <g id="line2d_45">
      <g>
       <use xlink:href="#m3ca9263333" x="716.610372" y="220.26091" style="fill: #3a4b6e; stroke: #3a4b6e; stroke-width: 0.75"/>
      </g>
     </g>
     <g id="text_45">
      <!-- 0.2 -->
      <g transform="translate(710.772372 232.773472) scale(0.084 -0.084)">
       <use xlink:href="#ArialMT-30"/>
       <use xlink:href="#ArialMT-2e" x="55.615234"/>
       <use xlink:href="#ArialMT-32" x="83.398438"/>
      </g>
     </g>
    </g>
    <g id="xtick_21">
     <g id="line2d_46">
      <g>
       <use xlink:href="#m3ca9263333" x="747.469613" y="220.26091" style="fill: #3a4b6e; stroke: #3a4b6e; stroke-width: 0.75"/>
      </g>
     </g>
     <g id="text_46">
      <!-- 0.4 -->
      <g transform="translate(741.631613 232.773472) scale(0.084 -0.084)">
       <use xlink:href="#ArialMT-30"/>
       <use xlink:href="#ArialMT-2e" x="55.615234"/>
       <use xlink:href="#ArialMT-34" x="83.398438"/>
      </g>
     </g>
    </g>
    <g id="text_47">
     <!-- R2 -->
     <g transform="translate(653.792594 245.417545) scale(0.09744 -0.09744)">
      <use xlink:href="#ArialMT-52"/>
      <use xlink:href="#ArialMT-32" x="72.216797"/>
     </g>
    </g>
   </g>
   <g id="matplotlib.axis_6">
    <g id="ytick_14">
     <g id="line2d_47">
      <g>
       <use xlink:href="#md4ccfabfc4" x="552.107255" y="220.26091" style="fill: #3a4b6e; stroke: #3a4b6e; stroke-width: 0.75"/>
      </g>
     </g>
     <g id="text_48">
      <!-- 0 -->
      <g transform="translate(540.936068 223.267191) scale(0.084 -0.084)">
       <use xlink:href="#ArialMT-30"/>
      </g>
     </g>
    </g>
    <g id="ytick_15">
     <g id="line2d_48">
      <g>
       <use xlink:href="#md4ccfabfc4" x="552.107255" y="186.631203" style="fill: #3a4b6e; stroke: #3a4b6e; stroke-width: 0.75"/>
      </g>
     </g>
     <g id="text_49">
      <!-- 20 -->
      <g transform="translate(536.26488 189.637484) scale(0.084 -0.084)">
       <use xlink:href="#ArialMT-32"/>
       <use xlink:href="#ArialMT-30" x="55.615234"/>
      </g>
     </g>
    </g>
    <g id="ytick_16">
     <g id="line2d_49">
      <g>
       <use xlink:href="#md4ccfabfc4" x="552.107255" y="153.001495" style="fill: #3a4b6e; stroke: #3a4b6e; stroke-width: 0.75"/>
      </g>
     </g>
     <g id="text_50">
      <!-- 40 -->
      <g transform="translate(536.26488 156.007777) scale(0.084 -0.084)">
       <use xlink:href="#ArialMT-34"/>
       <use xlink:href="#ArialMT-30" x="55.615234"/>
      </g>
     </g>
    </g>
    <g id="ytick_17">
     <g id="line2d_50">
      <g>
       <use xlink:href="#md4ccfabfc4" x="552.107255" y="119.371788" style="fill: #3a4b6e; stroke: #3a4b6e; stroke-width: 0.75"/>
      </g>
     </g>
     <g id="text_51">
      <!-- 60 -->
      <g transform="translate(536.26488 122.378069) scale(0.084 -0.084)">
       <use xlink:href="#ArialMT-36"/>
       <use xlink:href="#ArialMT-30" x="55.615234"/>
      </g>
     </g>
    </g>
    <g id="ytick_18">
     <g id="line2d_51">
      <g>
       <use xlink:href="#md4ccfabfc4" x="552.107255" y="85.742081" style="fill: #3a4b6e; stroke: #3a4b6e; stroke-width: 0.75"/>
      </g>
     </g>
     <g id="text_52">
      <!-- 80 -->
      <g transform="translate(536.26488 88.748362) scale(0.084 -0.084)">
       <use xlink:href="#ArialMT-38"/>
       <use xlink:href="#ArialMT-30" x="55.615234"/>
      </g>
     </g>
    </g>
    <g id="ytick_19">
     <g id="line2d_52">
      <g>
       <use xlink:href="#md4ccfabfc4" x="552.107255" y="52.112374" style="fill: #3a4b6e; stroke: #3a4b6e; stroke-width: 0.75"/>
      </g>
     </g>
     <g id="text_53">
      <!-- 100 -->
      <g transform="translate(531.593692 55.118655) scale(0.084 -0.084)">
       <use xlink:href="#ArialMT-31"/>
       <use xlink:href="#ArialMT-30" x="55.615234"/>
       <use xlink:href="#ArialMT-30" x="111.230469"/>
      </g>
     </g>
    </g>
    <g id="text_54">
     <!-- Count -->
     <g transform="translate(525.657073 137.037776) rotate(-90) scale(0.09744 -0.09744)">
      <use xlink:href="#ArialMT-43"/>
      <use xlink:href="#ArialMT-6f" x="72.216797"/>
      <use xlink:href="#ArialMT-75" x="127.832031"/>
      <use xlink:href="#ArialMT-6e" x="183.447266"/>
      <use xlink:href="#ArialMT-74" x="239.0625"/>
     </g>
    </g>
   </g>
   <g id="line2d_53">
    <path d="M 758.123221 220.26091 
L 758.123221 27.81491 
" clip-path="url(#p5ecee876a6)" style="fill: none; stroke: #e2745e; stroke-width: 2; stroke-linecap: square"/>
   </g>
   <g id="line2d_54">
    <path d="M 673.314764 220.26091 
L 673.314764 27.81491 
" clip-path="url(#p5ecee876a6)" style="fill: none; stroke-dasharray: 4.44,1.92; stroke-dashoffset: 0; stroke: #ba3e45; stroke-width: 1.2"/>
   </g>
   <g id="line2d_55">
    <path d="M 683.612372 220.26091 
L 683.612372 27.81491 
" clip-path="url(#p5ecee876a6)" style="fill: none; stroke-dasharray: 1.2,1.98; stroke-dashoffset: 0; stroke: #d05928; stroke-width: 1.2"/>
   </g>
   <g id="patch_95">
    <path d="M 552.107255 220.26091 
L 552.107255 27.81491 
" style="fill: none; stroke: #3a4b6e; stroke-width: 0.75; stroke-linejoin: miter; stroke-linecap: square"/>
   </g>
   <g id="patch_96">
    <path d="M 552.107255 220.26091 
L 767.933505 220.26091 
" style="fill: none; stroke: #3a4b6e; stroke-width: 0.75; stroke-linejoin: miter; stroke-linecap: square"/>
   </g>
   <g id="text_55">
    <!-- THR -->
    <g transform="translate(649.317126 11.775577) scale(0.10416 -0.10416)">
     <defs>
      <path id="Arial-BoldMT-54" d="M 1497 0 
L 1497 3806 
L 138 3806 
L 138 4581 
L 3778 4581 
L 3778 3806 
L 2422 3806 
L 2422 0 
L 1497 0 
z
" transform="scale(0.015625)"/>
     </defs>
     <use xlink:href="#Arial-BoldMT-54"/>
     <use xlink:href="#Arial-BoldMT-48" x="61.083984"/>
     <use xlink:href="#Arial-BoldMT-52" x="133.300781"/>
    </g>
    <!-- p=0.001 -->
    <g transform="translate(640.766241 22.81491) scale(0.10416 -0.10416)">
     <use xlink:href="#Arial-BoldMT-70"/>
     <use xlink:href="#Arial-BoldMT-3d" x="61.083984"/>
     <use xlink:href="#Arial-BoldMT-30" x="119.482422"/>
     <use xlink:href="#Arial-BoldMT-2e" x="175.097656"/>
     <use xlink:href="#Arial-BoldMT-30" x="202.880859"/>
     <use xlink:href="#Arial-BoldMT-30" x="258.496094"/>
     <use xlink:href="#Arial-BoldMT-31" x="314.111328"/>
    </g>
   </g>
   <g id="legend_3">
    <g id="line2d_56">
     <path d="M 557.957255 36.600798 
L 563.482255 36.600798 
L 569.007255 36.600798 
" style="fill: none; stroke: #e2745e; stroke-width: 2; stroke-linecap: square"/>
    </g>
    <g id="text_56">
     <!-- Observed -->
     <g transform="translate(571.932255 38.875798) scale(0.0728 -0.0728)">
      <use xlink:href="#ArialMT-4f"/>
      <use xlink:href="#ArialMT-62" x="77.783203"/>
      <use xlink:href="#ArialMT-73" x="133.398438"/>
      <use xlink:href="#ArialMT-65" x="183.398438"/>
      <use xlink:href="#ArialMT-72" x="239.013672"/>
      <use xlink:href="#ArialMT-76" x="272.314453"/>
      <use xlink:href="#ArialMT-65" x="322.314453"/>
      <use xlink:href="#ArialMT-64" x="377.929688"/>
     </g>
    </g>
    <g id="line2d_57">
     <path d="M 557.957255 46.508585 
L 563.482255 46.508585 
L 569.007255 46.508585 
" style="fill: none; stroke-dasharray: 4.44,1.92; stroke-dashoffset: 0; stroke: #ba3e45; stroke-width: 1.2"/>
    </g>
    <g id="text_57">
     <!-- Null 95th -->
     <g transform="translate(571.932255 48.783585) scale(0.0728 -0.0728)">
      <use xlink:href="#ArialMT-4e"/>
      <use xlink:href="#ArialMT-75" x="72.216797"/>
      <use xlink:href="#ArialMT-6c" x="127.832031"/>
      <use xlink:href="#ArialMT-6c" x="150.048828"/>
      <use xlink:href="#ArialMT-20" x="172.265625"/>
      <use xlink:href="#ArialMT-39" x="200.048828"/>
      <use xlink:href="#ArialMT-35" x="255.664062"/>
      <use xlink:href="#ArialMT-74" x="311.279297"/>
      <use xlink:href="#ArialMT-68" x="339.0625"/>
     </g>
    </g>
    <g id="line2d_58">
     <path d="M 557.957255 56.416373 
L 563.482255 56.416373 
L 569.007255 56.416373 
" style="fill: none; stroke-dasharray: 1.2,1.98; stroke-dashoffset: 0; stroke: #d05928; stroke-width: 1.2"/>
    </g>
    <g id="text_58">
     <!-- Dummy -->
     <g transform="translate(571.932255 58.691372) scale(0.0728 -0.0728)">
      <use xlink:href="#ArialMT-44"/>
      <use xlink:href="#ArialMT-75" x="72.216797"/>
      <use xlink:href="#ArialMT-6d" x="127.832031"/>
      <use xlink:href="#ArialMT-6d" x="211.132812"/>
      <use xlink:href="#ArialMT-79" x="294.433594"/>
     </g>
    </g>
   </g>
  </g>
  <g id="axes_4">
   <g id="patch_97">
    <path d="M 809.288505 220.26091 
L 1025.114755 220.26091 
L 1025.114755 27.81491 
L 809.288505 27.81491 
z
" style="fill: #ffffff"/>
   </g>
   <g id="patch_98">
    <path d="M 819.098789 220.26091 
L 823.790518 220.26091 
L 823.790518 216.736258 
L 819.098789 216.736258 
z
" clip-path="url(#p36ebd3a785)" style="fill: #e9d8d2; opacity: 0.95; stroke: #a7afb8; stroke-width: 0.5; stroke-linejoin: miter"/>
   </g>
   <g id="patch_99">
    <path d="M 823.790518 220.26091 
L 828.482246 220.26091 
L 828.482246 216.736258 
L 823.790518 216.736258 
z
" clip-path="url(#p36ebd3a785)" style="fill: #e9d8d2; opacity: 0.95; stroke: #a7afb8; stroke-width: 0.5; stroke-linejoin: miter"/>
   </g>
   <g id="patch_100">
    <path d="M 828.482246 220.26091 
L 833.173974 220.26091 
L 833.173974 206.162302 
L 828.482246 206.162302 
z
" clip-path="url(#p36ebd3a785)" style="fill: #e9d8d2; opacity: 0.95; stroke: #a7afb8; stroke-width: 0.5; stroke-linejoin: miter"/>
   </g>
   <g id="patch_101">
    <path d="M 833.173974 220.26091 
L 837.865703 220.26091 
L 837.865703 176.20276 
L 833.173974 176.20276 
z
" clip-path="url(#p36ebd3a785)" style="fill: #e9d8d2; opacity: 0.95; stroke: #a7afb8; stroke-width: 0.5; stroke-linejoin: miter"/>
   </g>
   <g id="patch_102">
    <path d="M 837.865703 220.26091 
L 842.557431 220.26091 
L 842.557431 163.866478 
L 837.865703 163.866478 
z
" clip-path="url(#p36ebd3a785)" style="fill: #e9d8d2; opacity: 0.95; stroke: #a7afb8; stroke-width: 0.5; stroke-linejoin: miter"/>
   </g>
   <g id="patch_103">
    <path d="M 842.557431 220.26091 
L 847.24916 220.26091 
L 847.24916 155.054848 
L 842.557431 155.054848 
z
" clip-path="url(#p36ebd3a785)" style="fill: #e9d8d2; opacity: 0.95; stroke: #a7afb8; stroke-width: 0.5; stroke-linejoin: miter"/>
   </g>
   <g id="patch_104">
    <path d="M 847.24916 220.26091 
L 851.940888 220.26091 
L 851.940888 123.33298 
L 847.24916 123.33298 
z
" clip-path="url(#p36ebd3a785)" style="fill: #e9d8d2; opacity: 0.95; stroke: #a7afb8; stroke-width: 0.5; stroke-linejoin: miter"/>
   </g>
   <g id="patch_105">
    <path d="M 851.940888 220.26091 
L 856.632616 220.26091 
L 856.632616 63.413895 
L 851.940888 63.413895 
z
" clip-path="url(#p36ebd3a785)" style="fill: #e9d8d2; opacity: 0.95; stroke: #a7afb8; stroke-width: 0.5; stroke-linejoin: miter"/>
   </g>
   <g id="patch_106">
    <path d="M 856.632616 220.26091 
L 861.324345 220.26091 
L 861.324345 77.512503 
L 856.632616 77.512503 
z
" clip-path="url(#p36ebd3a785)" style="fill: #e9d8d2; opacity: 0.95; stroke: #a7afb8; stroke-width: 0.5; stroke-linejoin: miter"/>
   </g>
   <g id="patch_107">
    <path d="M 861.324345 220.26091 
L 866.016073 220.26091 
L 866.016073 36.979005 
L 861.324345 36.979005 
z
" clip-path="url(#p36ebd3a785)" style="fill: #e9d8d2; opacity: 0.95; stroke: #a7afb8; stroke-width: 0.5; stroke-linejoin: miter"/>
   </g>
   <g id="patch_108">
    <path d="M 866.016073 220.26091 
L 870.707802 220.26091 
L 870.707802 36.979005 
L 866.016073 36.979005 
z
" clip-path="url(#p36ebd3a785)" style="fill: #e9d8d2; opacity: 0.95; stroke: #a7afb8; stroke-width: 0.5; stroke-linejoin: miter"/>
   </g>
   <g id="patch_109">
    <path d="M 870.707802 220.26091 
L 875.39953 220.26091 
L 875.39953 42.265983 
L 870.707802 42.265983 
z
" clip-path="url(#p36ebd3a785)" style="fill: #e9d8d2; opacity: 0.95; stroke: #a7afb8; stroke-width: 0.5; stroke-linejoin: miter"/>
   </g>
   <g id="patch_110">
    <path d="M 875.39953 220.26091 
L 880.091259 220.26091 
L 880.091259 49.315287 
L 875.39953 49.315287 
z
" clip-path="url(#p36ebd3a785)" style="fill: #e9d8d2; opacity: 0.95; stroke: #a7afb8; stroke-width: 0.5; stroke-linejoin: miter"/>
   </g>
   <g id="patch_111">
    <path d="M 880.091259 220.26091 
L 884.782987 220.26091 
L 884.782987 79.274829 
L 880.091259 79.274829 
z
" clip-path="url(#p36ebd3a785)" style="fill: #e9d8d2; opacity: 0.95; stroke: #a7afb8; stroke-width: 0.5; stroke-linejoin: miter"/>
   </g>
   <g id="patch_112">
    <path d="M 884.782987 220.26091 
L 889.474715 220.26091 
L 889.474715 118.046002 
L 884.782987 118.046002 
z
" clip-path="url(#p36ebd3a785)" style="fill: #e9d8d2; opacity: 0.95; stroke: #a7afb8; stroke-width: 0.5; stroke-linejoin: miter"/>
   </g>
   <g id="patch_113">
    <path d="M 889.474715 220.26091 
L 894.166444 220.26091 
L 894.166444 158.5795 
L 889.474715 158.5795 
z
" clip-path="url(#p36ebd3a785)" style="fill: #e9d8d2; opacity: 0.95; stroke: #a7afb8; stroke-width: 0.5; stroke-linejoin: miter"/>
   </g>
   <g id="patch_114">
    <path d="M 894.166444 220.26091 
L 898.858172 220.26091 
L 898.858172 165.628804 
L 894.166444 165.628804 
z
" clip-path="url(#p36ebd3a785)" style="fill: #e9d8d2; opacity: 0.95; stroke: #a7afb8; stroke-width: 0.5; stroke-linejoin: miter"/>
   </g>
   <g id="patch_115">
    <path d="M 898.858172 220.26091 
L 903.549901 220.26091 
L 903.549901 158.5795 
L 898.858172 158.5795 
z
" clip-path="url(#p36ebd3a785)" style="fill: #e9d8d2; opacity: 0.95; stroke: #a7afb8; stroke-width: 0.5; stroke-linejoin: miter"/>
   </g>
   <g id="patch_116">
    <path d="M 903.549901 220.26091 
L 908.241629 220.26091 
L 908.241629 195.588346 
L 903.549901 195.588346 
z
" clip-path="url(#p36ebd3a785)" style="fill: #e9d8d2; opacity: 0.95; stroke: #a7afb8; stroke-width: 0.5; stroke-linejoin: miter"/>
   </g>
   <g id="patch_117">
    <path d="M 908.241629 220.26091 
L 912.933358 220.26091 
L 912.933358 213.211606 
L 908.241629 213.211606 
z
" clip-path="url(#p36ebd3a785)" style="fill: #e9d8d2; opacity: 0.95; stroke: #a7afb8; stroke-width: 0.5; stroke-linejoin: miter"/>
   </g>
   <g id="patch_118">
    <path d="M 912.933358 220.26091 
L 917.625086 220.26091 
L 917.625086 213.211606 
L 912.933358 213.211606 
z
" clip-path="url(#p36ebd3a785)" style="fill: #e9d8d2; opacity: 0.95; stroke: #a7afb8; stroke-width: 0.5; stroke-linejoin: miter"/>
   </g>
   <g id="patch_119">
    <path d="M 917.625086 220.26091 
L 922.316814 220.26091 
L 922.316814 218.498584 
L 917.625086 218.498584 
z
" clip-path="url(#p36ebd3a785)" style="fill: #e9d8d2; opacity: 0.95; stroke: #a7afb8; stroke-width: 0.5; stroke-linejoin: miter"/>
   </g>
   <g id="matplotlib.axis_7">
    <g id="xtick_22">
     <g id="line2d_59">
      <g>
       <use xlink:href="#m3ca9263333" x="837.262807" y="220.26091" style="fill: #3a4b6e; stroke: #3a4b6e; stroke-width: 0.75"/>
      </g>
     </g>
     <g id="text_59">
      <!-- 0.4 -->
      <g transform="translate(831.424807 232.773472) scale(0.084 -0.084)">
       <use xlink:href="#ArialMT-30"/>
       <use xlink:href="#ArialMT-2e" x="55.615234"/>
       <use xlink:href="#ArialMT-34" x="83.398438"/>
      </g>
     </g>
    </g>
    <g id="xtick_23">
     <g id="line2d_60">
      <g>
       <use xlink:href="#m3ca9263333" x="882.71225" y="220.26091" style="fill: #3a4b6e; stroke: #3a4b6e; stroke-width: 0.75"/>
      </g>
     </g>
     <g id="text_60">
      <!-- 0.5 -->
      <g transform="translate(876.87425 232.773472) scale(0.084 -0.084)">
       <use xlink:href="#ArialMT-30"/>
       <use xlink:href="#ArialMT-2e" x="55.615234"/>
       <use xlink:href="#ArialMT-35" x="83.398438"/>
      </g>
     </g>
    </g>
    <g id="xtick_24">
     <g id="line2d_61">
      <g>
       <use xlink:href="#m3ca9263333" x="928.161693" y="220.26091" style="fill: #3a4b6e; stroke: #3a4b6e; stroke-width: 0.75"/>
      </g>
     </g>
     <g id="text_61">
      <!-- 0.6 -->
      <g transform="translate(922.323693 232.773472) scale(0.084 -0.084)">
       <use xlink:href="#ArialMT-30"/>
       <use xlink:href="#ArialMT-2e" x="55.615234"/>
       <use xlink:href="#ArialMT-36" x="83.398438"/>
      </g>
     </g>
    </g>
    <g id="xtick_25">
     <g id="line2d_62">
      <g>
       <use xlink:href="#m3ca9263333" x="973.611136" y="220.26091" style="fill: #3a4b6e; stroke: #3a4b6e; stroke-width: 0.75"/>
      </g>
     </g>
     <g id="text_62">
      <!-- 0.7 -->
      <g transform="translate(967.773136 232.773472) scale(0.084 -0.084)">
       <defs>
        <path id="ArialMT-37" d="M 303 3981 
L 303 4522 
L 3269 4522 
L 3269 4084 
Q 2831 3619 2401 2847 
Q 1972 2075 1738 1259 
Q 1569 684 1522 0 
L 944 0 
Q 953 541 1156 1306 
Q 1359 2072 1739 2783 
Q 2119 3494 2547 3981 
L 303 3981 
z
" transform="scale(0.015625)"/>
       </defs>
       <use xlink:href="#ArialMT-30"/>
       <use xlink:href="#ArialMT-2e" x="55.615234"/>
       <use xlink:href="#ArialMT-37" x="83.398438"/>
      </g>
     </g>
    </g>
    <g id="xtick_26">
     <g id="line2d_63">
      <g>
       <use xlink:href="#m3ca9263333" x="1019.060579" y="220.26091" style="fill: #3a4b6e; stroke: #3a4b6e; stroke-width: 0.75"/>
      </g>
     </g>
     <g id="text_63">
      <!-- 0.8 -->
      <g transform="translate(1013.222579 232.773472) scale(0.084 -0.084)">
       <use xlink:href="#ArialMT-30"/>
       <use xlink:href="#ArialMT-2e" x="55.615234"/>
       <use xlink:href="#ArialMT-38" x="83.398438"/>
      </g>
     </g>
    </g>
    <g id="text_64">
     <!-- Macro-F1 -->
     <g transform="translate(896.359366 245.417545) scale(0.09744 -0.09744)">
      <defs>
       <path id="ArialMT-4d" d="M 475 0 
L 475 4581 
L 1388 4581 
L 2472 1338 
Q 2622 884 2691 659 
Q 2769 909 2934 1394 
L 4031 4581 
L 4847 4581 
L 4847 0 
L 4263 0 
L 4263 3834 
L 2931 0 
L 2384 0 
L 1059 3900 
L 1059 0 
L 475 0 
z
" transform="scale(0.015625)"/>
       <path id="ArialMT-61" d="M 2588 409 
Q 2275 144 1986 34 
Q 1697 -75 1366 -75 
Q 819 -75 525 192 
Q 231 459 231 875 
Q 231 1119 342 1320 
Q 453 1522 633 1644 
Q 813 1766 1038 1828 
Q 1203 1872 1538 1913 
Q 2219 1994 2541 2106 
Q 2544 2222 2544 2253 
Q 2544 2597 2384 2738 
Q 2169 2928 1744 2928 
Q 1347 2928 1158 2789 
Q 969 2650 878 2297 
L 328 2372 
Q 403 2725 575 2942 
Q 747 3159 1072 3276 
Q 1397 3394 1825 3394 
Q 2250 3394 2515 3294 
Q 2781 3194 2906 3042 
Q 3031 2891 3081 2659 
Q 3109 2516 3109 2141 
L 3109 1391 
Q 3109 606 3145 398 
Q 3181 191 3288 0 
L 2700 0 
Q 2613 175 2588 409 
z
M 2541 1666 
Q 2234 1541 1622 1453 
Q 1275 1403 1131 1340 
Q 988 1278 909 1158 
Q 831 1038 831 891 
Q 831 666 1001 516 
Q 1172 366 1500 366 
Q 1825 366 2078 508 
Q 2331 650 2450 897 
Q 2541 1088 2541 1459 
L 2541 1666 
z
" transform="scale(0.015625)"/>
       <path id="ArialMT-63" d="M 2588 1216 
L 3141 1144 
Q 3050 572 2676 248 
Q 2303 -75 1759 -75 
Q 1078 -75 664 370 
Q 250 816 250 1647 
Q 250 2184 428 2587 
Q 606 2991 970 3192 
Q 1334 3394 1763 3394 
Q 2303 3394 2647 3120 
Q 2991 2847 3088 2344 
L 2541 2259 
Q 2463 2594 2264 2762 
Q 2066 2931 1784 2931 
Q 1359 2931 1093 2626 
Q 828 2322 828 1663 
Q 828 994 1084 691 
Q 1341 388 1753 388 
Q 2084 388 2306 591 
Q 2528 794 2588 1216 
z
" transform="scale(0.015625)"/>
       <path id="ArialMT-2d" d="M 203 1375 
L 203 1941 
L 1931 1941 
L 1931 1375 
L 203 1375 
z
" transform="scale(0.015625)"/>
       <path id="ArialMT-46" d="M 525 0 
L 525 4581 
L 3616 4581 
L 3616 4041 
L 1131 4041 
L 1131 2622 
L 3281 2622 
L 3281 2081 
L 1131 2081 
L 1131 0 
L 525 0 
z
" transform="scale(0.015625)"/>
      </defs>
      <use xlink:href="#ArialMT-4d"/>
      <use xlink:href="#ArialMT-61" x="83.300781"/>
      <use xlink:href="#ArialMT-63" x="138.916016"/>
      <use xlink:href="#ArialMT-72" x="188.916016"/>
      <use xlink:href="#ArialMT-6f" x="222.216797"/>
      <use xlink:href="#ArialMT-2d" x="277.832031"/>
      <use xlink:href="#ArialMT-46" x="311.132812"/>
      <use xlink:href="#ArialMT-31" x="372.216797"/>
     </g>
    </g>
   </g>
   <g id="matplotlib.axis_8">
    <g id="ytick_20">
     <g id="line2d_64">
      <g>
       <use xlink:href="#md4ccfabfc4" x="809.288505" y="220.26091" style="fill: #3a4b6e; stroke: #3a4b6e; stroke-width: 0.75"/>
      </g>
     </g>
     <g id="text_65">
      <!-- 0 -->
      <g transform="translate(798.117318 223.267191) scale(0.084 -0.084)">
       <use xlink:href="#ArialMT-30"/>
      </g>
     </g>
    </g>
    <g id="ytick_21">
     <g id="line2d_65">
      <g>
       <use xlink:href="#md4ccfabfc4" x="809.288505" y="185.01439" style="fill: #3a4b6e; stroke: #3a4b6e; stroke-width: 0.75"/>
      </g>
     </g>
     <g id="text_66">
      <!-- 20 -->
      <g transform="translate(793.44613 188.020671) scale(0.084 -0.084)">
       <use xlink:href="#ArialMT-32"/>
       <use xlink:href="#ArialMT-30" x="55.615234"/>
      </g>
     </g>
    </g>
    <g id="ytick_22">
     <g id="line2d_66">
      <g>
       <use xlink:href="#md4ccfabfc4" x="809.288505" y="149.76787" style="fill: #3a4b6e; stroke: #3a4b6e; stroke-width: 0.75"/>
      </g>
     </g>
     <g id="text_67">
      <!-- 40 -->
      <g transform="translate(793.44613 152.774151) scale(0.084 -0.084)">
       <use xlink:href="#ArialMT-34"/>
       <use xlink:href="#ArialMT-30" x="55.615234"/>
      </g>
     </g>
    </g>
    <g id="ytick_23">
     <g id="line2d_67">
      <g>
       <use xlink:href="#md4ccfabfc4" x="809.288505" y="114.52135" style="fill: #3a4b6e; stroke: #3a4b6e; stroke-width: 0.75"/>
      </g>
     </g>
     <g id="text_68">
      <!-- 60 -->
      <g transform="translate(793.44613 117.527631) scale(0.084 -0.084)">
       <use xlink:href="#ArialMT-36"/>
       <use xlink:href="#ArialMT-30" x="55.615234"/>
      </g>
     </g>
    </g>
    <g id="ytick_24">
     <g id="line2d_68">
      <g>
       <use xlink:href="#md4ccfabfc4" x="809.288505" y="79.274829" style="fill: #3a4b6e; stroke: #3a4b6e; stroke-width: 0.75"/>
      </g>
     </g>
     <g id="text_69">
      <!-- 80 -->
      <g transform="translate(793.44613 82.281111) scale(0.084 -0.084)">
       <use xlink:href="#ArialMT-38"/>
       <use xlink:href="#ArialMT-30" x="55.615234"/>
      </g>
     </g>
    </g>
    <g id="ytick_25">
     <g id="line2d_69">
      <g>
       <use xlink:href="#md4ccfabfc4" x="809.288505" y="44.028309" style="fill: #3a4b6e; stroke: #3a4b6e; stroke-width: 0.75"/>
      </g>
     </g>
     <g id="text_70">
      <!-- 100 -->
      <g transform="translate(788.774942 47.034591) scale(0.084 -0.084)">
       <use xlink:href="#ArialMT-31"/>
       <use xlink:href="#ArialMT-30" x="55.615234"/>
       <use xlink:href="#ArialMT-30" x="111.230469"/>
      </g>
     </g>
    </g>
    <g id="text_71">
     <!-- Count -->
     <g transform="translate(782.838323 137.037776) rotate(-90) scale(0.09744 -0.09744)">
      <use xlink:href="#ArialMT-43"/>
      <use xlink:href="#ArialMT-6f" x="72.216797"/>
      <use xlink:href="#ArialMT-75" x="127.832031"/>
      <use xlink:href="#ArialMT-6e" x="183.447266"/>
      <use xlink:href="#ArialMT-74" x="239.0625"/>
     </g>
    </g>
   </g>
   <g id="line2d_70">
    <path d="M 1015.304471 220.26091 
L 1015.304471 27.81491 
" clip-path="url(#p36ebd3a785)" style="fill: none; stroke: #3a4b6e; stroke-width: 2; stroke-linecap: square"/>
   </g>
   <g id="line2d_71">
    <path d="M 899.931025 220.26091 
L 899.931025 27.81491 
" clip-path="url(#p36ebd3a785)" style="fill: none; stroke-dasharray: 4.44,1.92; stroke-dashoffset: 0; stroke: #ba3e45; stroke-width: 1.2"/>
   </g>
   <g id="line2d_72">
    <path d="M 819.10741 220.26091 
L 819.10741 27.81491 
" clip-path="url(#p36ebd3a785)" style="fill: none; stroke-dasharray: 1.2,1.98; stroke-dashoffset: 0; stroke: #d05928; stroke-width: 1.2"/>
   </g>
   <g id="patch_120">
    <path d="M 809.288505 220.26091 
L 809.288505 27.81491 
" style="fill: none; stroke: #3a4b6e; stroke-width: 0.75; stroke-linejoin: miter; stroke-linecap: square"/>
   </g>
   <g id="patch_121">
    <path d="M 809.288505 220.26091 
L 1025.114755 220.26091 
" style="fill: none; stroke: #3a4b6e; stroke-width: 0.75; stroke-linejoin: miter; stroke-linecap: square"/>
   </g>
   <g id="text_72">
    <!-- UL-94 -->
    <g transform="translate(902.733155 11.775577) scale(0.10416 -0.10416)">
     <defs>
      <path id="Arial-BoldMT-55" d="M 459 4581 
L 1384 4581 
L 1384 2100 
Q 1384 1509 1419 1334 
Q 1478 1053 1701 883 
Q 1925 713 2313 713 
Q 2706 713 2906 873 
Q 3106 1034 3147 1268 
Q 3188 1503 3188 2047 
L 3188 4581 
L 4113 4581 
L 4113 2175 
Q 4113 1350 4038 1009 
Q 3963 669 3761 434 
Q 3559 200 3221 61 
Q 2884 -78 2341 -78 
Q 1684 -78 1345 73 
Q 1006 225 809 467 
Q 613 709 550 975 
Q 459 1369 459 2138 
L 459 4581 
z
" transform="scale(0.015625)"/>
      <path id="Arial-BoldMT-2d" d="M 359 1222 
L 359 2100 
L 2084 2100 
L 2084 1222 
L 359 1222 
z
" transform="scale(0.015625)"/>
      <path id="Arial-BoldMT-39" d="M 291 1059 
L 1141 1153 
Q 1172 894 1303 769 
Q 1434 644 1650 644 
Q 1922 644 2112 894 
Q 2303 1144 2356 1931 
Q 2025 1547 1528 1547 
Q 988 1547 595 1964 
Q 203 2381 203 3050 
Q 203 3747 617 4173 
Q 1031 4600 1672 4600 
Q 2369 4600 2816 4061 
Q 3263 3522 3263 2288 
Q 3263 1031 2797 475 
Q 2331 -81 1584 -81 
Q 1047 -81 715 205 
Q 384 491 291 1059 
z
M 2278 2978 
Q 2278 3403 2083 3637 
Q 1888 3872 1631 3872 
Q 1388 3872 1227 3680 
Q 1066 3488 1066 3050 
Q 1066 2606 1241 2398 
Q 1416 2191 1678 2191 
Q 1931 2191 2104 2391 
Q 2278 2591 2278 2978 
z
" transform="scale(0.015625)"/>
      <path id="Arial-BoldMT-34" d="M 1994 0 
L 1994 922 
L 119 922 
L 119 1691 
L 2106 4600 
L 2844 4600 
L 2844 1694 
L 3413 1694 
L 3413 922 
L 2844 922 
L 2844 0 
L 1994 0 
z
M 1994 1694 
L 1994 3259 
L 941 1694 
L 1994 1694 
z
" transform="scale(0.015625)"/>
     </defs>
     <use xlink:href="#Arial-BoldMT-55"/>
     <use xlink:href="#Arial-BoldMT-4c" x="72.216797"/>
     <use xlink:href="#Arial-BoldMT-2d" x="133.300781"/>
     <use xlink:href="#Arial-BoldMT-39" x="166.601562"/>
     <use xlink:href="#Arial-BoldMT-34" x="222.216797"/>
    </g>
    <!-- p=0.001 -->
    <g transform="translate(897.947491 22.81491) scale(0.10416 -0.10416)">
     <use xlink:href="#Arial-BoldMT-70"/>
     <use xlink:href="#Arial-BoldMT-3d" x="61.083984"/>
     <use xlink:href="#Arial-BoldMT-30" x="119.482422"/>
     <use xlink:href="#Arial-BoldMT-2e" x="175.097656"/>
     <use xlink:href="#Arial-BoldMT-30" x="202.880859"/>
     <use xlink:href="#Arial-BoldMT-30" x="258.496094"/>
     <use xlink:href="#Arial-BoldMT-31" x="314.111328"/>
    </g>
   </g>
   <g id="legend_4">
    <g id="line2d_73">
     <path d="M 973.729817 36.600798 
L 979.254817 36.600798 
L 984.779817 36.600798 
" style="fill: none; stroke: #3a4b6e; stroke-width: 2; stroke-linecap: square"/>
    </g>
    <g id="text_73">
     <!-- Observed -->
     <g transform="translate(987.704817 38.875798) scale(0.0728 -0.0728)">
      <use xlink:href="#ArialMT-4f"/>
      <use xlink:href="#ArialMT-62" x="77.783203"/>
      <use xlink:href="#ArialMT-73" x="133.398438"/>
      <use xlink:href="#ArialMT-65" x="183.398438"/>
      <use xlink:href="#ArialMT-72" x="239.013672"/>
      <use xlink:href="#ArialMT-76" x="272.314453"/>
      <use xlink:href="#ArialMT-65" x="322.314453"/>
      <use xlink:href="#ArialMT-64" x="377.929688"/>
     </g>
    </g>
    <g id="line2d_74">
     <path d="M 973.729817 46.508585 
L 979.254817 46.508585 
L 984.779817 46.508585 
" style="fill: none; stroke-dasharray: 4.44,1.92; stroke-dashoffset: 0; stroke: #ba3e45; stroke-width: 1.2"/>
    </g>
    <g id="text_74">
     <!-- Null 95th -->
     <g transform="translate(987.704817 48.783585) scale(0.0728 -0.0728)">
      <use xlink:href="#ArialMT-4e"/>
      <use xlink:href="#ArialMT-75" x="72.216797"/>
      <use xlink:href="#ArialMT-6c" x="127.832031"/>
      <use xlink:href="#ArialMT-6c" x="150.048828"/>
      <use xlink:href="#ArialMT-20" x="172.265625"/>
      <use xlink:href="#ArialMT-39" x="200.048828"/>
      <use xlink:href="#ArialMT-35" x="255.664062"/>
      <use xlink:href="#ArialMT-74" x="311.279297"/>
      <use xlink:href="#ArialMT-68" x="339.0625"/>
     </g>
    </g>
    <g id="line2d_75">
     <path d="M 973.729817 56.416373 
L 979.254817 56.416373 
L 984.779817 56.416373 
" style="fill: none; stroke-dasharray: 1.2,1.98; stroke-dashoffset: 0; stroke: #d05928; stroke-width: 1.2"/>
    </g>
    <g id="text_75">
     <!-- Dummy -->
     <g transform="translate(987.704817 58.691372) scale(0.0728 -0.0728)">
      <use xlink:href="#ArialMT-44"/>
      <use xlink:href="#ArialMT-75" x="72.216797"/>
      <use xlink:href="#ArialMT-6d" x="127.832031"/>
      <use xlink:href="#ArialMT-6d" x="211.132812"/>
      <use xlink:href="#ArialMT-79" x="294.433594"/>
     </g>
    </g>
   </g>
  </g>
 </g>
 <defs>
  <clipPath id="p3426e4d735">
   <rect x="37.744755" y="27.81491" width="215.82625" height="192.446"/>
  </clipPath>
  <clipPath id="p2c711be0b4">
   <rect x="294.926005" y="27.81491" width="215.82625" height="192.446"/>
  </clipPath>
  <clipPath id="p5ecee876a6">
   <rect x="552.107255" y="27.81491" width="215.82625" height="192.446"/>
  </clipPath>
  <clipPath id="p36ebd3a785">
   <rect x="809.288505" y="27.81491" width="215.82625" height="192.446"/>
  </clipPath>
 </defs>
</svg>
